<mxfile host="app.diagrams.net" agent="Mozilla/5.0 (Windows NT 10.0; Win64; x64) AppleWebKit/537.36 (KHTML, like Gecko) Chrome/126.0.0.0 YaBrowser/24.7.0.0 Safari/537.36" version="24.7.17">
  <diagram name="Страница — 1" id="81DjTX1Zt05AeOksZ2re">
    <mxGraphModel dx="1235" dy="648" grid="0" gridSize="10" guides="1" tooltips="1" connect="1" arrows="1" fold="1" page="1" pageScale="1" pageWidth="1169" pageHeight="1654" math="0" shadow="0">
      <root>
        <mxCell id="0" />
        <mxCell id="1" parent="0" />
        <mxCell id="ceS3RIVjsUkoLxIVPGM4-1" value="" style="rounded=0;whiteSpace=wrap;html=1;" vertex="1" parent="1">
          <mxGeometry x="142" y="568" width="942" height="604" as="geometry" />
        </mxCell>
        <mxCell id="mPks2kub7r_de1HNfDGB-4" value="" style="rounded=0;whiteSpace=wrap;html=1;" parent="1" vertex="1">
          <mxGeometry x="1317" y="1195" width="782" height="341" as="geometry" />
        </mxCell>
        <mxCell id="mPks2kub7r_de1HNfDGB-3" value="" style="rounded=0;whiteSpace=wrap;html=1;" parent="1" vertex="1">
          <mxGeometry x="1201" y="669" width="1111" height="374" as="geometry" />
        </mxCell>
        <mxCell id="mPks2kub7r_de1HNfDGB-1" value="" style="rounded=0;whiteSpace=wrap;html=1;" parent="1" vertex="1">
          <mxGeometry x="1316" y="130" width="860" height="410" as="geometry" />
        </mxCell>
        <mxCell id="LOxP8aFsU5h4RWgLrdqV-52" style="edgeStyle=orthogonalEdgeStyle;rounded=0;orthogonalLoop=1;jettySize=auto;html=1;entryX=0;entryY=0.5;entryDx=0;entryDy=0;" parent="1" source="LOxP8aFsU5h4RWgLrdqV-21" target="LOxP8aFsU5h4RWgLrdqV-38" edge="1">
          <mxGeometry relative="1" as="geometry" />
        </mxCell>
        <mxCell id="LOxP8aFsU5h4RWgLrdqV-21" value="Выбор товар" style="html=1;whiteSpace=wrap;" parent="1" vertex="1">
          <mxGeometry x="273" y="690" width="180" height="90" as="geometry" />
        </mxCell>
        <mxCell id="LOxP8aFsU5h4RWgLrdqV-22" value="" style="endArrow=none;html=1;rounded=0;" parent="1" edge="1">
          <mxGeometry width="50" height="50" relative="1" as="geometry">
            <mxPoint x="273" y="700" as="sourcePoint" />
            <mxPoint x="283" y="690" as="targetPoint" />
          </mxGeometry>
        </mxCell>
        <mxCell id="LOxP8aFsU5h4RWgLrdqV-23" value="&lt;font style=&quot;font-size: 11px;&quot;&gt;А0.1&lt;/font&gt;" style="text;html=1;align=center;verticalAlign=middle;whiteSpace=wrap;rounded=0;" parent="1" vertex="1">
          <mxGeometry x="415" y="760" width="40" height="20" as="geometry" />
        </mxCell>
        <mxCell id="LOxP8aFsU5h4RWgLrdqV-28" value="" style="endArrow=classic;html=1;rounded=0;" parent="1" edge="1">
          <mxGeometry width="50" height="50" relative="1" as="geometry">
            <mxPoint x="153" y="734.5699999999999" as="sourcePoint" />
            <mxPoint x="273" y="734.5699999999999" as="targetPoint" />
          </mxGeometry>
        </mxCell>
        <mxCell id="LOxP8aFsU5h4RWgLrdqV-30" value="&lt;font style=&quot;font-size: 11px;&quot;&gt;Требования на товар&lt;/font&gt;" style="text;html=1;align=center;verticalAlign=middle;whiteSpace=wrap;rounded=0;" parent="1" vertex="1">
          <mxGeometry x="153" y="700" width="110" height="30" as="geometry" />
        </mxCell>
        <mxCell id="LOxP8aFsU5h4RWgLrdqV-31" value="Наличие товара" style="text;html=1;align=center;verticalAlign=middle;whiteSpace=wrap;rounded=0;" parent="1" vertex="1">
          <mxGeometry x="405" y="570" width="110" height="40" as="geometry" />
        </mxCell>
        <mxCell id="LOxP8aFsU5h4RWgLrdqV-88" style="edgeStyle=orthogonalEdgeStyle;rounded=0;orthogonalLoop=1;jettySize=auto;html=1;entryX=0.5;entryY=0;entryDx=0;entryDy=0;" parent="1" source="LOxP8aFsU5h4RWgLrdqV-32" target="LOxP8aFsU5h4RWgLrdqV-41" edge="1">
          <mxGeometry relative="1" as="geometry">
            <Array as="points">
              <mxPoint x="734" y="652" />
              <mxPoint x="863" y="652" />
            </Array>
          </mxGeometry>
        </mxCell>
        <mxCell id="LOxP8aFsU5h4RWgLrdqV-32" value="Правила магазина" style="text;html=1;align=center;verticalAlign=middle;whiteSpace=wrap;rounded=0;" parent="1" vertex="1">
          <mxGeometry x="693" y="570" width="80" height="30" as="geometry" />
        </mxCell>
        <mxCell id="LOxP8aFsU5h4RWgLrdqV-35" value="Выбранный товар" style="text;html=1;align=center;verticalAlign=middle;whiteSpace=wrap;rounded=0;" parent="1" vertex="1">
          <mxGeometry x="413" y="790" width="70" height="40" as="geometry" />
        </mxCell>
        <mxCell id="LOxP8aFsU5h4RWgLrdqV-47" value="" style="group" parent="1" connectable="0" vertex="1">
          <mxGeometry x="901" y="955" width="104" height="195" as="geometry" />
        </mxCell>
        <mxCell id="LOxP8aFsU5h4RWgLrdqV-48" value="" style="endArrow=classic;html=1;rounded=0;entryX=0.25;entryY=0;entryDx=0;entryDy=0;" parent="LOxP8aFsU5h4RWgLrdqV-47" edge="1">
          <mxGeometry width="50" height="50" relative="1" as="geometry">
            <mxPoint y="195" as="sourcePoint" />
            <mxPoint as="targetPoint" />
          </mxGeometry>
        </mxCell>
        <mxCell id="LOxP8aFsU5h4RWgLrdqV-50" value="" style="group" parent="1" connectable="0" vertex="1">
          <mxGeometry x="513" y="782" width="182" height="90" as="geometry" />
        </mxCell>
        <mxCell id="LOxP8aFsU5h4RWgLrdqV-38" value="Покупка товара" style="html=1;whiteSpace=wrap;" parent="LOxP8aFsU5h4RWgLrdqV-50" vertex="1">
          <mxGeometry width="180" height="90" as="geometry" />
        </mxCell>
        <mxCell id="LOxP8aFsU5h4RWgLrdqV-39" value="" style="endArrow=none;html=1;rounded=0;" parent="LOxP8aFsU5h4RWgLrdqV-50" edge="1">
          <mxGeometry width="50" height="50" relative="1" as="geometry">
            <mxPoint y="10" as="sourcePoint" />
            <mxPoint x="10" as="targetPoint" />
          </mxGeometry>
        </mxCell>
        <mxCell id="LOxP8aFsU5h4RWgLrdqV-40" value="&lt;font style=&quot;font-size: 11px;&quot;&gt;А0.2&lt;/font&gt;" style="text;html=1;align=center;verticalAlign=middle;whiteSpace=wrap;rounded=0;" parent="LOxP8aFsU5h4RWgLrdqV-50" vertex="1">
          <mxGeometry x="142" y="70" width="40" height="20" as="geometry" />
        </mxCell>
        <mxCell id="LOxP8aFsU5h4RWgLrdqV-51" value="" style="group" parent="1" connectable="0" vertex="1">
          <mxGeometry x="773" y="865" width="182" height="90" as="geometry" />
        </mxCell>
        <mxCell id="LOxP8aFsU5h4RWgLrdqV-41" value="Добавление отзыва" style="html=1;whiteSpace=wrap;" parent="LOxP8aFsU5h4RWgLrdqV-51" vertex="1">
          <mxGeometry width="180" height="90" as="geometry" />
        </mxCell>
        <mxCell id="LOxP8aFsU5h4RWgLrdqV-42" value="" style="endArrow=none;html=1;rounded=0;" parent="LOxP8aFsU5h4RWgLrdqV-51" edge="1">
          <mxGeometry width="50" height="50" relative="1" as="geometry">
            <mxPoint y="10" as="sourcePoint" />
            <mxPoint x="10" as="targetPoint" />
          </mxGeometry>
        </mxCell>
        <mxCell id="LOxP8aFsU5h4RWgLrdqV-43" value="&lt;font style=&quot;font-size: 11px;&quot;&gt;А0.3&lt;/font&gt;" style="text;html=1;align=center;verticalAlign=middle;whiteSpace=wrap;rounded=0;" parent="LOxP8aFsU5h4RWgLrdqV-51" vertex="1">
          <mxGeometry x="142" y="70" width="40" height="20" as="geometry" />
        </mxCell>
        <mxCell id="LOxP8aFsU5h4RWgLrdqV-55" style="edgeStyle=orthogonalEdgeStyle;rounded=0;orthogonalLoop=1;jettySize=auto;html=1;entryX=0;entryY=0.5;entryDx=0;entryDy=0;" parent="1" source="LOxP8aFsU5h4RWgLrdqV-38" target="LOxP8aFsU5h4RWgLrdqV-41" edge="1">
          <mxGeometry relative="1" as="geometry" />
        </mxCell>
        <mxCell id="LOxP8aFsU5h4RWgLrdqV-56" value="Купленный товар" style="text;html=1;align=center;verticalAlign=middle;whiteSpace=wrap;rounded=0;" parent="1" vertex="1">
          <mxGeometry x="635" y="906" width="110" height="40" as="geometry" />
        </mxCell>
        <mxCell id="LOxP8aFsU5h4RWgLrdqV-57" value="" style="endArrow=classic;html=1;rounded=0;" parent="1" edge="1">
          <mxGeometry width="50" height="50" relative="1" as="geometry">
            <mxPoint x="953" y="919.5699999999999" as="sourcePoint" />
            <mxPoint x="1073" y="919.5699999999999" as="targetPoint" />
          </mxGeometry>
        </mxCell>
        <mxCell id="LOxP8aFsU5h4RWgLrdqV-58" value="Добавленный отзыв" style="text;html=1;align=center;verticalAlign=middle;whiteSpace=wrap;rounded=0;" parent="1" vertex="1">
          <mxGeometry x="982" y="876" width="75" height="38" as="geometry" />
        </mxCell>
        <mxCell id="LOxP8aFsU5h4RWgLrdqV-26" value="" style="endArrow=classic;html=1;rounded=0;edgeStyle=orthogonalEdgeStyle;" parent="1" edge="1">
          <mxGeometry width="50" height="50" relative="1" as="geometry">
            <mxPoint x="342" y="1067" as="sourcePoint" />
            <mxPoint x="342" y="781" as="targetPoint" />
          </mxGeometry>
        </mxCell>
        <mxCell id="LOxP8aFsU5h4RWgLrdqV-33" value="Клиент" style="text;html=1;align=center;verticalAlign=middle;whiteSpace=wrap;rounded=0;" parent="1" vertex="1">
          <mxGeometry x="523" y="1100" width="60" height="40" as="geometry" />
        </mxCell>
        <mxCell id="LOxP8aFsU5h4RWgLrdqV-34" value="Веб-приложение" style="text;html=1;align=center;verticalAlign=middle;whiteSpace=wrap;rounded=0;" parent="1" vertex="1">
          <mxGeometry x="623" y="1100" width="100" height="40" as="geometry" />
        </mxCell>
        <mxCell id="LOxP8aFsU5h4RWgLrdqV-60" value="" style="endArrow=classic;html=1;rounded=0;edgeStyle=orthogonalEdgeStyle;" parent="1" edge="1">
          <mxGeometry width="50" height="50" relative="1" as="geometry">
            <mxPoint x="379" y="1020" as="sourcePoint" />
            <mxPoint x="379" y="781" as="targetPoint" />
          </mxGeometry>
        </mxCell>
        <mxCell id="LOxP8aFsU5h4RWgLrdqV-63" value="" style="endArrow=classic;html=1;rounded=0;entryX=0.594;entryY=1.043;entryDx=0;entryDy=0;entryPerimeter=0;" parent="1" edge="1">
          <mxGeometry width="50" height="50" relative="1" as="geometry">
            <mxPoint x="616" y="1150" as="sourcePoint" />
            <mxPoint x="616.0000000000001" y="871.9999999999999" as="targetPoint" />
          </mxGeometry>
        </mxCell>
        <mxCell id="LOxP8aFsU5h4RWgLrdqV-64" value="" style="endArrow=classic;html=1;rounded=0;entryX=0.594;entryY=1.043;entryDx=0;entryDy=0;entryPerimeter=0;" parent="1" edge="1">
          <mxGeometry width="50" height="50" relative="1" as="geometry">
            <mxPoint x="578" y="1040" as="sourcePoint" />
            <mxPoint x="578.0000000000001" y="871.9999999999999" as="targetPoint" />
          </mxGeometry>
        </mxCell>
        <mxCell id="LOxP8aFsU5h4RWgLrdqV-65" value="" style="endArrow=classic;html=1;rounded=0;entryX=0.594;entryY=1.043;entryDx=0;entryDy=0;entryPerimeter=0;" parent="1" edge="1">
          <mxGeometry width="50" height="50" relative="1" as="geometry">
            <mxPoint x="823" y="1020" as="sourcePoint" />
            <mxPoint x="823.0000000000001" y="954.9999999999999" as="targetPoint" />
          </mxGeometry>
        </mxCell>
        <mxCell id="LOxP8aFsU5h4RWgLrdqV-66" value="" style="endArrow=classic;html=1;rounded=0;" parent="1" edge="1">
          <mxGeometry width="50" height="50" relative="1" as="geometry">
            <mxPoint x="862.96" y="1067" as="sourcePoint" />
            <mxPoint x="862.96" y="955" as="targetPoint" />
          </mxGeometry>
        </mxCell>
        <mxCell id="LOxP8aFsU5h4RWgLrdqV-67" value="" style="endArrow=none;html=1;rounded=0;edgeStyle=orthogonalEdgeStyle;" parent="1" edge="1">
          <mxGeometry width="50" height="50" relative="1" as="geometry">
            <mxPoint x="578" y="1150" as="sourcePoint" />
            <mxPoint x="578" y="1040" as="targetPoint" />
          </mxGeometry>
        </mxCell>
        <mxCell id="LOxP8aFsU5h4RWgLrdqV-69" value="" style="endArrow=none;html=1;rounded=1;edgeStyle=orthogonalEdgeStyle;curved=0;" parent="1" edge="1">
          <mxGeometry width="50" height="50" relative="1" as="geometry">
            <mxPoint x="615.9981818181818" y="1098" as="sourcePoint" />
            <mxPoint x="863" y="1068" as="targetPoint" />
            <Array as="points">
              <mxPoint x="615.9981818181818" y="1088" />
              <mxPoint x="615.9981818181818" y="1068" />
            </Array>
          </mxGeometry>
        </mxCell>
        <mxCell id="LOxP8aFsU5h4RWgLrdqV-70" value="" style="endArrow=none;html=1;rounded=1;edgeStyle=orthogonalEdgeStyle;curved=0;" parent="1" edge="1">
          <mxGeometry width="50" height="50" relative="1" as="geometry">
            <mxPoint x="578" y="1050" as="sourcePoint" />
            <mxPoint x="379" y="1020" as="targetPoint" />
            <Array as="points">
              <mxPoint x="578" y="1040" />
              <mxPoint x="578" y="1020" />
            </Array>
          </mxGeometry>
        </mxCell>
        <mxCell id="LOxP8aFsU5h4RWgLrdqV-71" value="" style="endArrow=none;html=1;rounded=1;edgeStyle=orthogonalEdgeStyle;curved=0;" parent="1" edge="1">
          <mxGeometry width="50" height="50" relative="1" as="geometry">
            <mxPoint x="578" y="1050" as="sourcePoint" />
            <mxPoint x="823" y="1020" as="targetPoint" />
            <Array as="points">
              <mxPoint x="578" y="1040" />
              <mxPoint x="578" y="1020" />
            </Array>
          </mxGeometry>
        </mxCell>
        <mxCell id="LOxP8aFsU5h4RWgLrdqV-49" value="Форма обратной связи" style="text;html=1;align=center;verticalAlign=middle;whiteSpace=wrap;rounded=0;" parent="1" vertex="1">
          <mxGeometry x="801" y="1108.18" width="100" height="31.82" as="geometry" />
        </mxCell>
        <mxCell id="LOxP8aFsU5h4RWgLrdqV-85" style="edgeStyle=orthogonalEdgeStyle;rounded=0;orthogonalLoop=1;jettySize=auto;html=1;entryX=0.392;entryY=0.016;entryDx=0;entryDy=0;entryPerimeter=0;" parent="1" source="LOxP8aFsU5h4RWgLrdqV-31" target="LOxP8aFsU5h4RWgLrdqV-21" edge="1">
          <mxGeometry relative="1" as="geometry">
            <Array as="points">
              <mxPoint x="459" y="650" />
              <mxPoint x="344" y="650" />
            </Array>
          </mxGeometry>
        </mxCell>
        <mxCell id="LOxP8aFsU5h4RWgLrdqV-86" style="edgeStyle=orthogonalEdgeStyle;rounded=0;orthogonalLoop=1;jettySize=auto;html=1;entryX=0.339;entryY=-0.022;entryDx=0;entryDy=0;entryPerimeter=0;" parent="1" source="LOxP8aFsU5h4RWgLrdqV-31" target="LOxP8aFsU5h4RWgLrdqV-38" edge="1">
          <mxGeometry relative="1" as="geometry">
            <Array as="points">
              <mxPoint x="459" y="650" />
              <mxPoint x="574" y="650" />
            </Array>
          </mxGeometry>
        </mxCell>
        <mxCell id="LOxP8aFsU5h4RWgLrdqV-87" style="edgeStyle=orthogonalEdgeStyle;rounded=0;orthogonalLoop=1;jettySize=auto;html=1;exitX=0.5;exitY=1;exitDx=0;exitDy=0;" parent="1" source="LOxP8aFsU5h4RWgLrdqV-32" edge="1">
          <mxGeometry relative="1" as="geometry">
            <mxPoint x="616" y="780" as="targetPoint" />
            <Array as="points">
              <mxPoint x="734" y="600" />
              <mxPoint x="734" y="652" />
              <mxPoint x="616" y="652" />
            </Array>
          </mxGeometry>
        </mxCell>
        <mxCell id="LOxP8aFsU5h4RWgLrdqV-90" value="" style="endArrow=none;html=1;rounded=1;edgeStyle=orthogonalEdgeStyle;curved=0;" parent="1" edge="1">
          <mxGeometry width="50" height="50" relative="1" as="geometry">
            <mxPoint x="616" y="1097" as="sourcePoint" />
            <mxPoint x="342" y="1067" as="targetPoint" />
            <Array as="points">
              <mxPoint x="616" y="1087" />
              <mxPoint x="616" y="1067" />
            </Array>
          </mxGeometry>
        </mxCell>
        <mxCell id="jKpCh8lfbe41_NHjqhII-1" value="Оказывать услуги по записи на процедуры" style="html=1;whiteSpace=wrap;" parent="1" vertex="1">
          <mxGeometry x="350" y="170" width="180" height="90" as="geometry" />
        </mxCell>
        <mxCell id="jKpCh8lfbe41_NHjqhII-2" value="" style="endArrow=none;html=1;rounded=0;" parent="1" edge="1">
          <mxGeometry width="50" height="50" relative="1" as="geometry">
            <mxPoint x="350" y="180" as="sourcePoint" />
            <mxPoint x="360" y="170" as="targetPoint" />
          </mxGeometry>
        </mxCell>
        <mxCell id="jKpCh8lfbe41_NHjqhII-3" value="&lt;font style=&quot;font-size: 11px;&quot;&gt;А0&lt;/font&gt;" style="text;html=1;align=center;verticalAlign=middle;whiteSpace=wrap;rounded=0;" parent="1" vertex="1">
          <mxGeometry x="496" y="240" width="40" height="20" as="geometry" />
        </mxCell>
        <mxCell id="jKpCh8lfbe41_NHjqhII-4" value="" style="endArrow=classic;html=1;rounded=0;entryX=0.25;entryY=0;entryDx=0;entryDy=0;" parent="1" edge="1">
          <mxGeometry width="50" height="50" relative="1" as="geometry">
            <mxPoint x="420" y="60" as="sourcePoint" />
            <mxPoint x="420" y="170" as="targetPoint" />
          </mxGeometry>
        </mxCell>
        <mxCell id="jKpCh8lfbe41_NHjqhII-5" value="" style="endArrow=classic;html=1;rounded=0;entryX=0.25;entryY=0;entryDx=0;entryDy=0;" parent="1" edge="1">
          <mxGeometry width="50" height="50" relative="1" as="geometry">
            <mxPoint x="456" y="60" as="sourcePoint" />
            <mxPoint x="456" y="170" as="targetPoint" />
          </mxGeometry>
        </mxCell>
        <mxCell id="jKpCh8lfbe41_NHjqhII-6" value="" style="endArrow=classic;html=1;rounded=0;entryX=0.25;entryY=0;entryDx=0;entryDy=0;" parent="1" edge="1">
          <mxGeometry width="50" height="50" relative="1" as="geometry">
            <mxPoint x="379" y="370" as="sourcePoint" />
            <mxPoint x="379" y="260" as="targetPoint" />
          </mxGeometry>
        </mxCell>
        <mxCell id="jKpCh8lfbe41_NHjqhII-7" value="" style="endArrow=classic;html=1;rounded=0;entryX=0.25;entryY=0;entryDx=0;entryDy=0;" parent="1" edge="1">
          <mxGeometry width="50" height="50" relative="1" as="geometry">
            <mxPoint x="434" y="370" as="sourcePoint" />
            <mxPoint x="434" y="260" as="targetPoint" />
          </mxGeometry>
        </mxCell>
        <mxCell id="jKpCh8lfbe41_NHjqhII-8" value="" style="endArrow=classic;html=1;rounded=0;" parent="1" edge="1">
          <mxGeometry width="50" height="50" relative="1" as="geometry">
            <mxPoint x="230" y="214.57" as="sourcePoint" />
            <mxPoint x="350" y="214.57" as="targetPoint" />
          </mxGeometry>
        </mxCell>
        <mxCell id="jKpCh8lfbe41_NHjqhII-9" value="" style="endArrow=classic;html=1;rounded=0;" parent="1" edge="1">
          <mxGeometry width="50" height="50" relative="1" as="geometry">
            <mxPoint x="530" y="214.57" as="sourcePoint" />
            <mxPoint x="650" y="214.57" as="targetPoint" />
          </mxGeometry>
        </mxCell>
        <mxCell id="jKpCh8lfbe41_NHjqhII-10" value="&lt;font style=&quot;font-size: 11px;&quot;&gt;Требования клиента на услугу&lt;/font&gt;" style="text;html=1;align=center;verticalAlign=middle;whiteSpace=wrap;rounded=0;" parent="1" vertex="1">
          <mxGeometry x="230" y="180" width="110" height="30" as="geometry" />
        </mxCell>
        <mxCell id="jKpCh8lfbe41_NHjqhII-11" value="Наличие свободных&amp;nbsp;&lt;div&gt;слотов&lt;/div&gt;" style="text;html=1;align=center;verticalAlign=middle;whiteSpace=wrap;rounded=0;" parent="1" vertex="1">
          <mxGeometry x="330" y="90" width="110" height="40" as="geometry" />
        </mxCell>
        <mxCell id="jKpCh8lfbe41_NHjqhII-12" value="Правила сервиса" style="text;html=1;align=center;verticalAlign=middle;whiteSpace=wrap;rounded=0;" parent="1" vertex="1">
          <mxGeometry x="450" y="95" width="80" height="30" as="geometry" />
        </mxCell>
        <mxCell id="jKpCh8lfbe41_NHjqhII-13" value="Мастер" style="text;html=1;align=center;verticalAlign=middle;whiteSpace=wrap;rounded=0;" parent="1" vertex="1">
          <mxGeometry x="428" y="291" width="60" height="40" as="geometry" />
        </mxCell>
        <mxCell id="jKpCh8lfbe41_NHjqhII-14" value="Клиент" style="text;html=1;align=center;verticalAlign=middle;whiteSpace=wrap;rounded=0;" parent="1" vertex="1">
          <mxGeometry x="303" y="291" width="100" height="40" as="geometry" />
        </mxCell>
        <mxCell id="jKpCh8lfbe41_NHjqhII-15" value="Запись на услугу" style="text;html=1;align=center;verticalAlign=middle;whiteSpace=wrap;rounded=0;" parent="1" vertex="1">
          <mxGeometry x="580" y="175" width="60" height="40" as="geometry" />
        </mxCell>
        <mxCell id="jKpCh8lfbe41_NHjqhII-16" value="Веб-приложение" style="text;html=1;align=center;verticalAlign=middle;whiteSpace=wrap;rounded=0;" parent="1" vertex="1">
          <mxGeometry x="498" y="295.09" width="100" height="31.82" as="geometry" />
        </mxCell>
        <mxCell id="jKpCh8lfbe41_NHjqhII-17" value="" style="endArrow=classic;html=1;rounded=0;entryX=0.25;entryY=0;entryDx=0;entryDy=0;" parent="1" edge="1">
          <mxGeometry width="50" height="50" relative="1" as="geometry">
            <mxPoint x="496" y="370" as="sourcePoint" />
            <mxPoint x="496" y="260" as="targetPoint" />
          </mxGeometry>
        </mxCell>
        <mxCell id="xypfRXkJw3f4mhyBnS4a-1" value="Просмотр товаров" style="rounded=0;whiteSpace=wrap;html=1;" parent="1" vertex="1">
          <mxGeometry x="1329" y="297" width="140" height="90" as="geometry" />
        </mxCell>
        <mxCell id="xypfRXkJw3f4mhyBnS4a-2" value="" style="endArrow=none;html=1;rounded=0;exitX=0;exitY=0.25;exitDx=0;exitDy=0;entryX=0.159;entryY=0.009;entryDx=0;entryDy=0;entryPerimeter=0;" parent="1" source="xypfRXkJw3f4mhyBnS4a-1" target="xypfRXkJw3f4mhyBnS4a-1" edge="1">
          <mxGeometry width="50" height="50" relative="1" as="geometry">
            <mxPoint x="1255" y="407" as="sourcePoint" />
            <mxPoint x="1305" y="357" as="targetPoint" />
          </mxGeometry>
        </mxCell>
        <mxCell id="xypfRXkJw3f4mhyBnS4a-3" value="" style="endArrow=none;html=1;rounded=0;exitX=0;exitY=0.75;exitDx=0;exitDy=0;entryX=1;entryY=0.75;entryDx=0;entryDy=0;" parent="1" source="xypfRXkJw3f4mhyBnS4a-1" target="xypfRXkJw3f4mhyBnS4a-1" edge="1">
          <mxGeometry width="50" height="50" relative="1" as="geometry">
            <mxPoint x="1459" y="197" as="sourcePoint" />
            <mxPoint x="1509" y="147" as="targetPoint" />
          </mxGeometry>
        </mxCell>
        <mxCell id="xypfRXkJw3f4mhyBnS4a-4" value="" style="endArrow=none;html=1;rounded=0;exitX=0.5;exitY=1;exitDx=0;exitDy=0;" parent="1" source="xypfRXkJw3f4mhyBnS4a-1" edge="1">
          <mxGeometry width="50" height="50" relative="1" as="geometry">
            <mxPoint x="1399" y="384" as="sourcePoint" />
            <mxPoint x="1399" y="364" as="targetPoint" />
          </mxGeometry>
        </mxCell>
        <mxCell id="xypfRXkJw3f4mhyBnS4a-5" value="A1.1.1" style="text;html=1;align=center;verticalAlign=middle;whiteSpace=wrap;rounded=0;" parent="1" vertex="1">
          <mxGeometry x="1333" y="362" width="60" height="30" as="geometry" />
        </mxCell>
        <mxCell id="xypfRXkJw3f4mhyBnS4a-6" value="Доступные товары" style="rounded=0;whiteSpace=wrap;html=1;" parent="1" vertex="1">
          <mxGeometry x="1329" y="427" width="140" height="70" as="geometry" />
        </mxCell>
        <mxCell id="xypfRXkJw3f4mhyBnS4a-7" value="" style="endArrow=none;html=1;rounded=0;exitX=0;exitY=0.25;exitDx=0;exitDy=0;entryX=0.159;entryY=0.009;entryDx=0;entryDy=0;entryPerimeter=0;" parent="1" source="xypfRXkJw3f4mhyBnS4a-6" target="xypfRXkJw3f4mhyBnS4a-6" edge="1">
          <mxGeometry width="50" height="50" relative="1" as="geometry">
            <mxPoint x="1255" y="537" as="sourcePoint" />
            <mxPoint x="1305" y="487" as="targetPoint" />
          </mxGeometry>
        </mxCell>
        <mxCell id="xypfRXkJw3f4mhyBnS4a-8" value="" style="endArrow=none;dashed=1;html=1;rounded=0;exitX=0.5;exitY=0;exitDx=0;exitDy=0;entryX=0.5;entryY=1;entryDx=0;entryDy=0;" parent="1" source="xypfRXkJw3f4mhyBnS4a-6" target="xypfRXkJw3f4mhyBnS4a-1" edge="1">
          <mxGeometry width="50" height="50" relative="1" as="geometry">
            <mxPoint x="1479" y="357" as="sourcePoint" />
            <mxPoint x="1529" y="307" as="targetPoint" />
          </mxGeometry>
        </mxCell>
        <mxCell id="xypfRXkJw3f4mhyBnS4a-9" value="Пользователь" style="rounded=0;whiteSpace=wrap;html=1;" parent="1" vertex="1">
          <mxGeometry x="1329" y="186" width="140" height="70" as="geometry" />
        </mxCell>
        <mxCell id="xypfRXkJw3f4mhyBnS4a-10" value="" style="endArrow=none;html=1;rounded=0;exitX=0;exitY=0.25;exitDx=0;exitDy=0;entryX=0.159;entryY=0.009;entryDx=0;entryDy=0;entryPerimeter=0;" parent="1" source="xypfRXkJw3f4mhyBnS4a-9" target="xypfRXkJw3f4mhyBnS4a-9" edge="1">
          <mxGeometry width="50" height="50" relative="1" as="geometry">
            <mxPoint x="1255" y="287" as="sourcePoint" />
            <mxPoint x="1305" y="237" as="targetPoint" />
          </mxGeometry>
        </mxCell>
        <mxCell id="xypfRXkJw3f4mhyBnS4a-11" value="" style="endArrow=none;dashed=1;html=1;rounded=0;exitX=0.5;exitY=0;exitDx=0;exitDy=0;entryX=0.5;entryY=1;entryDx=0;entryDy=0;" parent="1" edge="1">
          <mxGeometry width="50" height="50" relative="1" as="geometry">
            <mxPoint x="1398.8" y="297" as="sourcePoint" />
            <mxPoint x="1398.8" y="257" as="targetPoint" />
          </mxGeometry>
        </mxCell>
        <mxCell id="xypfRXkJw3f4mhyBnS4a-12" value="" style="rounded=0;whiteSpace=wrap;html=1;" parent="1" vertex="1">
          <mxGeometry x="1527" y="322" width="40" height="40" as="geometry" />
        </mxCell>
        <mxCell id="xypfRXkJw3f4mhyBnS4a-13" value="" style="endArrow=none;html=1;rounded=0;exitX=0.25;exitY=1;exitDx=0;exitDy=0;entryX=0.25;entryY=0;entryDx=0;entryDy=0;" parent="1" source="xypfRXkJw3f4mhyBnS4a-12" target="xypfRXkJw3f4mhyBnS4a-12" edge="1">
          <mxGeometry width="50" height="50" relative="1" as="geometry">
            <mxPoint x="1587" y="337" as="sourcePoint" />
            <mxPoint x="1637" y="287" as="targetPoint" />
          </mxGeometry>
        </mxCell>
        <mxCell id="xypfRXkJw3f4mhyBnS4a-14" value="&lt;b&gt;&lt;font style=&quot;font-size: 15px;&quot; face=&quot;Times New Roman&quot;&gt;O&lt;/font&gt;&lt;/b&gt;" style="text;html=1;align=center;verticalAlign=middle;whiteSpace=wrap;rounded=0;" parent="1" vertex="1">
          <mxGeometry x="1541" y="327" width="20" height="30" as="geometry" />
        </mxCell>
        <mxCell id="xypfRXkJw3f4mhyBnS4a-15" value="" style="endArrow=classic;html=1;rounded=0;exitX=1;exitY=0.5;exitDx=0;exitDy=0;entryX=0;entryY=0.5;entryDx=0;entryDy=0;" parent="1" source="xypfRXkJw3f4mhyBnS4a-1" target="xypfRXkJw3f4mhyBnS4a-12" edge="1">
          <mxGeometry width="50" height="50" relative="1" as="geometry">
            <mxPoint x="1659" y="337" as="sourcePoint" />
            <mxPoint x="1709" y="287" as="targetPoint" />
            <Array as="points">
              <mxPoint x="1499" y="342" />
            </Array>
          </mxGeometry>
        </mxCell>
        <mxCell id="xypfRXkJw3f4mhyBnS4a-16" value="Фильтрация товаров по цене" style="rounded=0;whiteSpace=wrap;html=1;" parent="1" vertex="1">
          <mxGeometry x="1609" y="186" width="140" height="90" as="geometry" />
        </mxCell>
        <mxCell id="xypfRXkJw3f4mhyBnS4a-17" value="" style="endArrow=none;html=1;rounded=0;exitX=0;exitY=0.25;exitDx=0;exitDy=0;entryX=0.159;entryY=0.009;entryDx=0;entryDy=0;entryPerimeter=0;" parent="1" source="xypfRXkJw3f4mhyBnS4a-16" target="xypfRXkJw3f4mhyBnS4a-16" edge="1">
          <mxGeometry width="50" height="50" relative="1" as="geometry">
            <mxPoint x="1535" y="296" as="sourcePoint" />
            <mxPoint x="1585" y="246" as="targetPoint" />
          </mxGeometry>
        </mxCell>
        <mxCell id="xypfRXkJw3f4mhyBnS4a-18" value="" style="endArrow=none;html=1;rounded=0;exitX=0;exitY=0.75;exitDx=0;exitDy=0;entryX=1;entryY=0.75;entryDx=0;entryDy=0;" parent="1" source="xypfRXkJw3f4mhyBnS4a-16" target="xypfRXkJw3f4mhyBnS4a-16" edge="1">
          <mxGeometry width="50" height="50" relative="1" as="geometry">
            <mxPoint x="1739" y="86" as="sourcePoint" />
            <mxPoint x="1789" y="36" as="targetPoint" />
          </mxGeometry>
        </mxCell>
        <mxCell id="xypfRXkJw3f4mhyBnS4a-19" value="" style="endArrow=none;html=1;rounded=0;exitX=0.5;exitY=1;exitDx=0;exitDy=0;" parent="1" source="xypfRXkJw3f4mhyBnS4a-16" edge="1">
          <mxGeometry width="50" height="50" relative="1" as="geometry">
            <mxPoint x="1679" y="273" as="sourcePoint" />
            <mxPoint x="1679" y="253" as="targetPoint" />
          </mxGeometry>
        </mxCell>
        <mxCell id="xypfRXkJw3f4mhyBnS4a-20" value="A1.1.2" style="text;html=1;align=center;verticalAlign=middle;whiteSpace=wrap;rounded=0;" parent="1" vertex="1">
          <mxGeometry x="1613" y="251" width="60" height="30" as="geometry" />
        </mxCell>
        <mxCell id="xypfRXkJw3f4mhyBnS4a-21" value="Сортировка товаров по рейтингу" style="rounded=0;whiteSpace=wrap;html=1;" parent="1" vertex="1">
          <mxGeometry x="1609" y="402" width="140" height="90" as="geometry" />
        </mxCell>
        <mxCell id="xypfRXkJw3f4mhyBnS4a-22" value="" style="endArrow=none;html=1;rounded=0;exitX=0;exitY=0.25;exitDx=0;exitDy=0;entryX=0.159;entryY=0.009;entryDx=0;entryDy=0;entryPerimeter=0;" parent="1" source="xypfRXkJw3f4mhyBnS4a-21" target="xypfRXkJw3f4mhyBnS4a-21" edge="1">
          <mxGeometry width="50" height="50" relative="1" as="geometry">
            <mxPoint x="1535" y="512" as="sourcePoint" />
            <mxPoint x="1585" y="462" as="targetPoint" />
          </mxGeometry>
        </mxCell>
        <mxCell id="xypfRXkJw3f4mhyBnS4a-23" value="" style="endArrow=none;html=1;rounded=0;exitX=0;exitY=0.75;exitDx=0;exitDy=0;entryX=1;entryY=0.75;entryDx=0;entryDy=0;" parent="1" source="xypfRXkJw3f4mhyBnS4a-21" target="xypfRXkJw3f4mhyBnS4a-21" edge="1">
          <mxGeometry width="50" height="50" relative="1" as="geometry">
            <mxPoint x="1739" y="302" as="sourcePoint" />
            <mxPoint x="1789" y="252" as="targetPoint" />
          </mxGeometry>
        </mxCell>
        <mxCell id="xypfRXkJw3f4mhyBnS4a-24" value="" style="endArrow=none;html=1;rounded=0;exitX=0.5;exitY=1;exitDx=0;exitDy=0;" parent="1" source="xypfRXkJw3f4mhyBnS4a-21" edge="1">
          <mxGeometry width="50" height="50" relative="1" as="geometry">
            <mxPoint x="1679" y="489" as="sourcePoint" />
            <mxPoint x="1679" y="469" as="targetPoint" />
          </mxGeometry>
        </mxCell>
        <mxCell id="xypfRXkJw3f4mhyBnS4a-25" value="A1.1.3" style="text;html=1;align=center;verticalAlign=middle;whiteSpace=wrap;rounded=0;" parent="1" vertex="1">
          <mxGeometry x="1613" y="467" width="60" height="30" as="geometry" />
        </mxCell>
        <mxCell id="xypfRXkJw3f4mhyBnS4a-26" value="" style="endArrow=classic;html=1;rounded=0;exitX=0.75;exitY=0;exitDx=0;exitDy=0;entryX=0;entryY=0.5;entryDx=0;entryDy=0;" parent="1" source="xypfRXkJw3f4mhyBnS4a-12" target="xypfRXkJw3f4mhyBnS4a-16" edge="1">
          <mxGeometry width="50" height="50" relative="1" as="geometry">
            <mxPoint x="1659" y="337" as="sourcePoint" />
            <mxPoint x="1709" y="287" as="targetPoint" />
            <Array as="points">
              <mxPoint x="1557" y="231" />
            </Array>
          </mxGeometry>
        </mxCell>
        <mxCell id="xypfRXkJw3f4mhyBnS4a-27" value="" style="endArrow=classic;html=1;rounded=0;exitX=0.75;exitY=0;exitDx=0;exitDy=0;entryX=0;entryY=0.5;entryDx=0;entryDy=0;" parent="1" edge="1">
          <mxGeometry width="50" height="50" relative="1" as="geometry">
            <mxPoint x="1557" y="362" as="sourcePoint" />
            <mxPoint x="1609" y="453" as="targetPoint" />
            <Array as="points">
              <mxPoint x="1557" y="453" />
            </Array>
          </mxGeometry>
        </mxCell>
        <mxCell id="xypfRXkJw3f4mhyBnS4a-28" value="Выбрать товар, удовлетворяющий пользователя" style="rounded=0;whiteSpace=wrap;html=1;" parent="1" vertex="1">
          <mxGeometry x="1949" y="297" width="140" height="90" as="geometry" />
        </mxCell>
        <mxCell id="xypfRXkJw3f4mhyBnS4a-29" value="" style="endArrow=none;html=1;rounded=0;exitX=0;exitY=0.25;exitDx=0;exitDy=0;entryX=0.159;entryY=0.009;entryDx=0;entryDy=0;entryPerimeter=0;" parent="1" source="xypfRXkJw3f4mhyBnS4a-28" target="xypfRXkJw3f4mhyBnS4a-28" edge="1">
          <mxGeometry width="50" height="50" relative="1" as="geometry">
            <mxPoint x="1875" y="407" as="sourcePoint" />
            <mxPoint x="1925" y="357" as="targetPoint" />
          </mxGeometry>
        </mxCell>
        <mxCell id="xypfRXkJw3f4mhyBnS4a-30" value="" style="endArrow=none;html=1;rounded=0;exitX=0;exitY=0.75;exitDx=0;exitDy=0;entryX=1;entryY=0.75;entryDx=0;entryDy=0;" parent="1" source="xypfRXkJw3f4mhyBnS4a-28" target="xypfRXkJw3f4mhyBnS4a-28" edge="1">
          <mxGeometry width="50" height="50" relative="1" as="geometry">
            <mxPoint x="2079" y="197" as="sourcePoint" />
            <mxPoint x="2129" y="147" as="targetPoint" />
          </mxGeometry>
        </mxCell>
        <mxCell id="xypfRXkJw3f4mhyBnS4a-31" value="" style="endArrow=none;html=1;rounded=0;exitX=0.5;exitY=1;exitDx=0;exitDy=0;" parent="1" source="xypfRXkJw3f4mhyBnS4a-28" edge="1">
          <mxGeometry width="50" height="50" relative="1" as="geometry">
            <mxPoint x="2019" y="384" as="sourcePoint" />
            <mxPoint x="2019" y="364" as="targetPoint" />
          </mxGeometry>
        </mxCell>
        <mxCell id="xypfRXkJw3f4mhyBnS4a-32" value="A1.1.4" style="text;html=1;align=center;verticalAlign=middle;whiteSpace=wrap;rounded=0;" parent="1" vertex="1">
          <mxGeometry x="1953" y="362" width="60" height="30" as="geometry" />
        </mxCell>
        <mxCell id="xypfRXkJw3f4mhyBnS4a-33" value="" style="rounded=0;whiteSpace=wrap;html=1;" parent="1" vertex="1">
          <mxGeometry x="1828" y="322" width="40" height="40" as="geometry" />
        </mxCell>
        <mxCell id="xypfRXkJw3f4mhyBnS4a-34" value="" style="endArrow=none;html=1;rounded=0;exitX=0.25;exitY=1;exitDx=0;exitDy=0;entryX=0.25;entryY=0;entryDx=0;entryDy=0;" parent="1" source="xypfRXkJw3f4mhyBnS4a-33" target="xypfRXkJw3f4mhyBnS4a-33" edge="1">
          <mxGeometry width="50" height="50" relative="1" as="geometry">
            <mxPoint x="1888" y="337" as="sourcePoint" />
            <mxPoint x="1938" y="287" as="targetPoint" />
          </mxGeometry>
        </mxCell>
        <mxCell id="xypfRXkJw3f4mhyBnS4a-35" value="&lt;b&gt;&lt;font style=&quot;font-size: 15px;&quot; face=&quot;Times New Roman&quot;&gt;O&lt;/font&gt;&lt;/b&gt;" style="text;html=1;align=center;verticalAlign=middle;whiteSpace=wrap;rounded=0;" parent="1" vertex="1">
          <mxGeometry x="1842" y="327" width="20" height="30" as="geometry" />
        </mxCell>
        <mxCell id="xypfRXkJw3f4mhyBnS4a-36" value="" style="endArrow=classic;html=1;rounded=0;exitX=1;exitY=0.5;exitDx=0;exitDy=0;entryX=0.5;entryY=0;entryDx=0;entryDy=0;" parent="1" source="xypfRXkJw3f4mhyBnS4a-16" target="xypfRXkJw3f4mhyBnS4a-33" edge="1">
          <mxGeometry width="50" height="50" relative="1" as="geometry">
            <mxPoint x="1820" y="220.5" as="sourcePoint" />
            <mxPoint x="1768" y="311.5" as="targetPoint" />
            <Array as="points">
              <mxPoint x="1849" y="231" />
            </Array>
          </mxGeometry>
        </mxCell>
        <mxCell id="xypfRXkJw3f4mhyBnS4a-37" value="" style="endArrow=classic;html=1;rounded=0;exitX=1;exitY=0.5;exitDx=0;exitDy=0;entryX=0;entryY=0.5;entryDx=0;entryDy=0;" parent="1" source="xypfRXkJw3f4mhyBnS4a-12" target="xypfRXkJw3f4mhyBnS4a-33" edge="1">
          <mxGeometry width="50" height="50" relative="1" as="geometry">
            <mxPoint x="1479" y="352" as="sourcePoint" />
            <mxPoint x="1537" y="352" as="targetPoint" />
            <Array as="points" />
          </mxGeometry>
        </mxCell>
        <mxCell id="xypfRXkJw3f4mhyBnS4a-38" value="" style="endArrow=classic;html=1;rounded=0;exitX=1;exitY=0.5;exitDx=0;exitDy=0;entryX=0.5;entryY=0;entryDx=0;entryDy=0;" parent="1" edge="1">
          <mxGeometry width="50" height="50" relative="1" as="geometry">
            <mxPoint x="1750" y="453" as="sourcePoint" />
            <mxPoint x="1849" y="362" as="targetPoint" />
            <Array as="points">
              <mxPoint x="1850" y="453" />
            </Array>
          </mxGeometry>
        </mxCell>
        <mxCell id="xypfRXkJw3f4mhyBnS4a-39" value="&lt;font face=&quot;Times New Roman&quot;&gt;&lt;span style=&quot;font-size: 15px;&quot;&gt;&lt;b&gt;J1&lt;/b&gt;&lt;/span&gt;&lt;/font&gt;" style="text;html=1;align=center;verticalAlign=middle;whiteSpace=wrap;rounded=0;" parent="1" vertex="1">
          <mxGeometry x="1570" y="352" width="20" height="30" as="geometry" />
        </mxCell>
        <mxCell id="xypfRXkJw3f4mhyBnS4a-40" value="&lt;font face=&quot;Times New Roman&quot;&gt;&lt;span style=&quot;font-size: 15px;&quot;&gt;&lt;b&gt;J2&lt;/b&gt;&lt;/span&gt;&lt;/font&gt;" style="text;html=1;align=center;verticalAlign=middle;whiteSpace=wrap;rounded=0;" parent="1" vertex="1">
          <mxGeometry x="1870" y="352" width="20" height="30" as="geometry" />
        </mxCell>
        <mxCell id="xypfRXkJw3f4mhyBnS4a-41" value="" style="endArrow=classic;html=1;rounded=0;exitX=1;exitY=0.5;exitDx=0;exitDy=0;entryX=0;entryY=0.5;entryDx=0;entryDy=0;" parent="1" source="xypfRXkJw3f4mhyBnS4a-33" target="xypfRXkJw3f4mhyBnS4a-28" edge="1">
          <mxGeometry width="50" height="50" relative="1" as="geometry">
            <mxPoint x="1659" y="337" as="sourcePoint" />
            <mxPoint x="1709" y="287" as="targetPoint" />
          </mxGeometry>
        </mxCell>
        <mxCell id="xypfRXkJw3f4mhyBnS4a-42" value="" style="endArrow=classic;html=1;rounded=0;exitX=1;exitY=0.5;exitDx=0;exitDy=0;entryX=0;entryY=0.5;entryDx=0;entryDy=0;" parent="1" edge="1">
          <mxGeometry width="50" height="50" relative="1" as="geometry">
            <mxPoint x="2089" y="341.71000000000004" as="sourcePoint" />
            <mxPoint x="2170" y="341.71000000000004" as="targetPoint" />
          </mxGeometry>
        </mxCell>
        <mxCell id="xypfRXkJw3f4mhyBnS4a-43" value="Выбранный&amp;nbsp;&lt;div&gt;товар&lt;/div&gt;" style="edgeLabel;resizable=0;html=1;;align=center;verticalAlign=middle;" parent="1" connectable="0" vertex="1">
          <mxGeometry x="2089" y="250.00428571428574" as="geometry">
            <mxPoint x="44" y="72" as="offset" />
          </mxGeometry>
        </mxCell>
        <mxCell id="TeYbG6EXB1Ewo-bh0uWP-93" value="Просмотр списка товаров" style="rounded=0;whiteSpace=wrap;html=1;" parent="1" vertex="1">
          <mxGeometry x="1210.5" y="801" width="140" height="90" as="geometry" />
        </mxCell>
        <mxCell id="TeYbG6EXB1Ewo-bh0uWP-94" value="" style="endArrow=none;html=1;rounded=0;exitX=0;exitY=0.25;exitDx=0;exitDy=0;entryX=0.159;entryY=0.009;entryDx=0;entryDy=0;entryPerimeter=0;" parent="1" source="TeYbG6EXB1Ewo-bh0uWP-93" target="TeYbG6EXB1Ewo-bh0uWP-93" edge="1">
          <mxGeometry width="50" height="50" relative="1" as="geometry">
            <mxPoint x="1136.5" y="911" as="sourcePoint" />
            <mxPoint x="1186.5" y="861" as="targetPoint" />
          </mxGeometry>
        </mxCell>
        <mxCell id="TeYbG6EXB1Ewo-bh0uWP-95" value="" style="endArrow=none;html=1;rounded=0;exitX=0;exitY=0.75;exitDx=0;exitDy=0;entryX=1;entryY=0.75;entryDx=0;entryDy=0;" parent="1" source="TeYbG6EXB1Ewo-bh0uWP-93" target="TeYbG6EXB1Ewo-bh0uWP-93" edge="1">
          <mxGeometry width="50" height="50" relative="1" as="geometry">
            <mxPoint x="1340.5" y="701" as="sourcePoint" />
            <mxPoint x="1390.5" y="651" as="targetPoint" />
          </mxGeometry>
        </mxCell>
        <mxCell id="TeYbG6EXB1Ewo-bh0uWP-96" value="" style="endArrow=none;html=1;rounded=0;exitX=0.5;exitY=1;exitDx=0;exitDy=0;" parent="1" source="TeYbG6EXB1Ewo-bh0uWP-93" edge="1">
          <mxGeometry width="50" height="50" relative="1" as="geometry">
            <mxPoint x="1280.5" y="888" as="sourcePoint" />
            <mxPoint x="1280.5" y="868" as="targetPoint" />
          </mxGeometry>
        </mxCell>
        <mxCell id="TeYbG6EXB1Ewo-bh0uWP-97" value="A2.1.1" style="text;html=1;align=center;verticalAlign=middle;whiteSpace=wrap;rounded=0;" parent="1" vertex="1">
          <mxGeometry x="1214.5" y="866" width="60" height="30" as="geometry" />
        </mxCell>
        <mxCell id="TeYbG6EXB1Ewo-bh0uWP-98" value="Доступные товары" style="rounded=0;whiteSpace=wrap;html=1;" parent="1" vertex="1">
          <mxGeometry x="1210.5" y="931" width="140" height="70" as="geometry" />
        </mxCell>
        <mxCell id="TeYbG6EXB1Ewo-bh0uWP-99" value="" style="endArrow=none;html=1;rounded=0;exitX=0;exitY=0.25;exitDx=0;exitDy=0;entryX=0.159;entryY=0.009;entryDx=0;entryDy=0;entryPerimeter=0;" parent="1" source="TeYbG6EXB1Ewo-bh0uWP-98" target="TeYbG6EXB1Ewo-bh0uWP-98" edge="1">
          <mxGeometry width="50" height="50" relative="1" as="geometry">
            <mxPoint x="1136.5" y="1041" as="sourcePoint" />
            <mxPoint x="1186.5" y="991" as="targetPoint" />
          </mxGeometry>
        </mxCell>
        <mxCell id="TeYbG6EXB1Ewo-bh0uWP-100" value="" style="endArrow=none;dashed=1;html=1;rounded=0;exitX=0.5;exitY=0;exitDx=0;exitDy=0;entryX=0.5;entryY=1;entryDx=0;entryDy=0;" parent="1" source="TeYbG6EXB1Ewo-bh0uWP-98" target="TeYbG6EXB1Ewo-bh0uWP-93" edge="1">
          <mxGeometry width="50" height="50" relative="1" as="geometry">
            <mxPoint x="1360.5" y="861" as="sourcePoint" />
            <mxPoint x="1410.5" y="811" as="targetPoint" />
          </mxGeometry>
        </mxCell>
        <mxCell id="TeYbG6EXB1Ewo-bh0uWP-101" value="Пользователь" style="rounded=0;whiteSpace=wrap;html=1;" parent="1" vertex="1">
          <mxGeometry x="1210.5" y="690" width="140" height="70" as="geometry" />
        </mxCell>
        <mxCell id="TeYbG6EXB1Ewo-bh0uWP-102" value="" style="endArrow=none;html=1;rounded=0;exitX=0;exitY=0.25;exitDx=0;exitDy=0;entryX=0.159;entryY=0.009;entryDx=0;entryDy=0;entryPerimeter=0;" parent="1" source="TeYbG6EXB1Ewo-bh0uWP-101" target="TeYbG6EXB1Ewo-bh0uWP-101" edge="1">
          <mxGeometry width="50" height="50" relative="1" as="geometry">
            <mxPoint x="1136.5" y="791" as="sourcePoint" />
            <mxPoint x="1186.5" y="741" as="targetPoint" />
          </mxGeometry>
        </mxCell>
        <mxCell id="TeYbG6EXB1Ewo-bh0uWP-103" value="" style="endArrow=none;dashed=1;html=1;rounded=0;exitX=0.5;exitY=0;exitDx=0;exitDy=0;entryX=0.5;entryY=1;entryDx=0;entryDy=0;" parent="1" edge="1">
          <mxGeometry width="50" height="50" relative="1" as="geometry">
            <mxPoint x="1280.3" y="801" as="sourcePoint" />
            <mxPoint x="1280.3" y="761" as="targetPoint" />
          </mxGeometry>
        </mxCell>
        <mxCell id="TeYbG6EXB1Ewo-bh0uWP-104" value="" style="rounded=0;whiteSpace=wrap;html=1;" parent="1" vertex="1">
          <mxGeometry x="1408.5" y="826" width="40" height="40" as="geometry" />
        </mxCell>
        <mxCell id="TeYbG6EXB1Ewo-bh0uWP-105" value="" style="endArrow=none;html=1;rounded=0;exitX=0.25;exitY=1;exitDx=0;exitDy=0;entryX=0.25;entryY=0;entryDx=0;entryDy=0;" parent="1" source="TeYbG6EXB1Ewo-bh0uWP-104" target="TeYbG6EXB1Ewo-bh0uWP-104" edge="1">
          <mxGeometry width="50" height="50" relative="1" as="geometry">
            <mxPoint x="1468.5" y="841" as="sourcePoint" />
            <mxPoint x="1518.5" y="791" as="targetPoint" />
          </mxGeometry>
        </mxCell>
        <mxCell id="TeYbG6EXB1Ewo-bh0uWP-106" value="&lt;b&gt;&lt;font style=&quot;font-size: 15px;&quot; face=&quot;Times New Roman&quot;&gt;O&lt;/font&gt;&lt;/b&gt;" style="text;html=1;align=center;verticalAlign=middle;whiteSpace=wrap;rounded=0;" parent="1" vertex="1">
          <mxGeometry x="1422.5" y="831" width="20" height="30" as="geometry" />
        </mxCell>
        <mxCell id="TeYbG6EXB1Ewo-bh0uWP-107" value="" style="endArrow=classic;html=1;rounded=0;exitX=1;exitY=0.5;exitDx=0;exitDy=0;entryX=0;entryY=0.5;entryDx=0;entryDy=0;" parent="1" source="TeYbG6EXB1Ewo-bh0uWP-93" target="TeYbG6EXB1Ewo-bh0uWP-104" edge="1">
          <mxGeometry width="50" height="50" relative="1" as="geometry">
            <mxPoint x="1540.5" y="841" as="sourcePoint" />
            <mxPoint x="1590.5" y="791" as="targetPoint" />
            <Array as="points">
              <mxPoint x="1380.5" y="846" />
            </Array>
          </mxGeometry>
        </mxCell>
        <mxCell id="TeYbG6EXB1Ewo-bh0uWP-108" value="Фильтрация товаров по цене" style="rounded=0;whiteSpace=wrap;html=1;" parent="1" vertex="1">
          <mxGeometry x="1490.5" y="690" width="140" height="90" as="geometry" />
        </mxCell>
        <mxCell id="TeYbG6EXB1Ewo-bh0uWP-109" value="" style="endArrow=none;html=1;rounded=0;exitX=0;exitY=0.25;exitDx=0;exitDy=0;entryX=0.159;entryY=0.009;entryDx=0;entryDy=0;entryPerimeter=0;" parent="1" source="TeYbG6EXB1Ewo-bh0uWP-108" target="TeYbG6EXB1Ewo-bh0uWP-108" edge="1">
          <mxGeometry width="50" height="50" relative="1" as="geometry">
            <mxPoint x="1416.5" y="800" as="sourcePoint" />
            <mxPoint x="1466.5" y="750" as="targetPoint" />
          </mxGeometry>
        </mxCell>
        <mxCell id="TeYbG6EXB1Ewo-bh0uWP-110" value="" style="endArrow=none;html=1;rounded=0;exitX=0;exitY=0.75;exitDx=0;exitDy=0;entryX=1;entryY=0.75;entryDx=0;entryDy=0;" parent="1" source="TeYbG6EXB1Ewo-bh0uWP-108" target="TeYbG6EXB1Ewo-bh0uWP-108" edge="1">
          <mxGeometry width="50" height="50" relative="1" as="geometry">
            <mxPoint x="1620.5" y="590" as="sourcePoint" />
            <mxPoint x="1670.5" y="540" as="targetPoint" />
          </mxGeometry>
        </mxCell>
        <mxCell id="TeYbG6EXB1Ewo-bh0uWP-111" value="" style="endArrow=none;html=1;rounded=0;exitX=0.5;exitY=1;exitDx=0;exitDy=0;" parent="1" source="TeYbG6EXB1Ewo-bh0uWP-108" edge="1">
          <mxGeometry width="50" height="50" relative="1" as="geometry">
            <mxPoint x="1560.5" y="777" as="sourcePoint" />
            <mxPoint x="1560.5" y="757" as="targetPoint" />
          </mxGeometry>
        </mxCell>
        <mxCell id="TeYbG6EXB1Ewo-bh0uWP-112" value="A2.1.2" style="text;html=1;align=center;verticalAlign=middle;whiteSpace=wrap;rounded=0;" parent="1" vertex="1">
          <mxGeometry x="1494.5" y="755" width="60" height="30" as="geometry" />
        </mxCell>
        <mxCell id="TeYbG6EXB1Ewo-bh0uWP-113" value="Сортировка товаров по рейтингу" style="rounded=0;whiteSpace=wrap;html=1;" parent="1" vertex="1">
          <mxGeometry x="1490.5" y="906" width="140" height="90" as="geometry" />
        </mxCell>
        <mxCell id="TeYbG6EXB1Ewo-bh0uWP-114" value="" style="endArrow=none;html=1;rounded=0;exitX=0;exitY=0.25;exitDx=0;exitDy=0;entryX=0.159;entryY=0.009;entryDx=0;entryDy=0;entryPerimeter=0;" parent="1" source="TeYbG6EXB1Ewo-bh0uWP-113" target="TeYbG6EXB1Ewo-bh0uWP-113" edge="1">
          <mxGeometry width="50" height="50" relative="1" as="geometry">
            <mxPoint x="1416.5" y="1016" as="sourcePoint" />
            <mxPoint x="1466.5" y="966" as="targetPoint" />
          </mxGeometry>
        </mxCell>
        <mxCell id="TeYbG6EXB1Ewo-bh0uWP-115" value="" style="endArrow=none;html=1;rounded=0;exitX=0;exitY=0.75;exitDx=0;exitDy=0;entryX=1;entryY=0.75;entryDx=0;entryDy=0;" parent="1" source="TeYbG6EXB1Ewo-bh0uWP-113" target="TeYbG6EXB1Ewo-bh0uWP-113" edge="1">
          <mxGeometry width="50" height="50" relative="1" as="geometry">
            <mxPoint x="1620.5" y="806" as="sourcePoint" />
            <mxPoint x="1670.5" y="756" as="targetPoint" />
          </mxGeometry>
        </mxCell>
        <mxCell id="TeYbG6EXB1Ewo-bh0uWP-116" value="" style="endArrow=none;html=1;rounded=0;exitX=0.5;exitY=1;exitDx=0;exitDy=0;" parent="1" source="TeYbG6EXB1Ewo-bh0uWP-113" edge="1">
          <mxGeometry width="50" height="50" relative="1" as="geometry">
            <mxPoint x="1560.5" y="993" as="sourcePoint" />
            <mxPoint x="1560.5" y="973" as="targetPoint" />
          </mxGeometry>
        </mxCell>
        <mxCell id="TeYbG6EXB1Ewo-bh0uWP-117" value="A2.1.3" style="text;html=1;align=center;verticalAlign=middle;whiteSpace=wrap;rounded=0;" parent="1" vertex="1">
          <mxGeometry x="1494.5" y="971" width="60" height="30" as="geometry" />
        </mxCell>
        <mxCell id="TeYbG6EXB1Ewo-bh0uWP-118" value="" style="endArrow=classic;html=1;rounded=0;exitX=0.75;exitY=0;exitDx=0;exitDy=0;entryX=0;entryY=0.5;entryDx=0;entryDy=0;" parent="1" source="TeYbG6EXB1Ewo-bh0uWP-104" target="TeYbG6EXB1Ewo-bh0uWP-108" edge="1">
          <mxGeometry width="50" height="50" relative="1" as="geometry">
            <mxPoint x="1540.5" y="841" as="sourcePoint" />
            <mxPoint x="1590.5" y="791" as="targetPoint" />
            <Array as="points">
              <mxPoint x="1438.5" y="735" />
            </Array>
          </mxGeometry>
        </mxCell>
        <mxCell id="TeYbG6EXB1Ewo-bh0uWP-119" value="" style="endArrow=classic;html=1;rounded=0;exitX=0.75;exitY=0;exitDx=0;exitDy=0;entryX=0;entryY=0.5;entryDx=0;entryDy=0;" parent="1" edge="1">
          <mxGeometry width="50" height="50" relative="1" as="geometry">
            <mxPoint x="1438.5" y="866" as="sourcePoint" />
            <mxPoint x="1490.5" y="957" as="targetPoint" />
            <Array as="points">
              <mxPoint x="1438.5" y="957" />
            </Array>
          </mxGeometry>
        </mxCell>
        <mxCell id="TeYbG6EXB1Ewo-bh0uWP-120" value="Выбор товара" style="rounded=0;whiteSpace=wrap;html=1;" parent="1" vertex="1">
          <mxGeometry x="1830.5" y="801" width="140" height="90" as="geometry" />
        </mxCell>
        <mxCell id="TeYbG6EXB1Ewo-bh0uWP-121" value="" style="endArrow=none;html=1;rounded=0;exitX=0;exitY=0.25;exitDx=0;exitDy=0;entryX=0.159;entryY=0.009;entryDx=0;entryDy=0;entryPerimeter=0;" parent="1" source="TeYbG6EXB1Ewo-bh0uWP-120" target="TeYbG6EXB1Ewo-bh0uWP-120" edge="1">
          <mxGeometry width="50" height="50" relative="1" as="geometry">
            <mxPoint x="1756.5" y="911" as="sourcePoint" />
            <mxPoint x="1806.5" y="861" as="targetPoint" />
          </mxGeometry>
        </mxCell>
        <mxCell id="TeYbG6EXB1Ewo-bh0uWP-122" value="" style="endArrow=none;html=1;rounded=0;exitX=0;exitY=0.75;exitDx=0;exitDy=0;entryX=1;entryY=0.75;entryDx=0;entryDy=0;" parent="1" source="TeYbG6EXB1Ewo-bh0uWP-120" target="TeYbG6EXB1Ewo-bh0uWP-120" edge="1">
          <mxGeometry width="50" height="50" relative="1" as="geometry">
            <mxPoint x="1960.5" y="701" as="sourcePoint" />
            <mxPoint x="2010.5" y="651" as="targetPoint" />
          </mxGeometry>
        </mxCell>
        <mxCell id="TeYbG6EXB1Ewo-bh0uWP-123" value="" style="endArrow=none;html=1;rounded=0;exitX=0.5;exitY=1;exitDx=0;exitDy=0;" parent="1" source="TeYbG6EXB1Ewo-bh0uWP-120" edge="1">
          <mxGeometry width="50" height="50" relative="1" as="geometry">
            <mxPoint x="1900.5" y="888" as="sourcePoint" />
            <mxPoint x="1900.5" y="868" as="targetPoint" />
          </mxGeometry>
        </mxCell>
        <mxCell id="TeYbG6EXB1Ewo-bh0uWP-124" value="A2.1.4" style="text;html=1;align=center;verticalAlign=middle;whiteSpace=wrap;rounded=0;" parent="1" vertex="1">
          <mxGeometry x="1834.5" y="866" width="60" height="30" as="geometry" />
        </mxCell>
        <mxCell id="TeYbG6EXB1Ewo-bh0uWP-125" value="" style="rounded=0;whiteSpace=wrap;html=1;" parent="1" vertex="1">
          <mxGeometry x="1709.5" y="826" width="40" height="40" as="geometry" />
        </mxCell>
        <mxCell id="TeYbG6EXB1Ewo-bh0uWP-126" value="" style="endArrow=none;html=1;rounded=0;exitX=0.25;exitY=1;exitDx=0;exitDy=0;entryX=0.25;entryY=0;entryDx=0;entryDy=0;" parent="1" source="TeYbG6EXB1Ewo-bh0uWP-125" target="TeYbG6EXB1Ewo-bh0uWP-125" edge="1">
          <mxGeometry width="50" height="50" relative="1" as="geometry">
            <mxPoint x="1769.5" y="841" as="sourcePoint" />
            <mxPoint x="1819.5" y="791" as="targetPoint" />
          </mxGeometry>
        </mxCell>
        <mxCell id="TeYbG6EXB1Ewo-bh0uWP-127" value="&lt;b&gt;&lt;font style=&quot;font-size: 15px;&quot; face=&quot;Times New Roman&quot;&gt;O&lt;/font&gt;&lt;/b&gt;" style="text;html=1;align=center;verticalAlign=middle;whiteSpace=wrap;rounded=0;" parent="1" vertex="1">
          <mxGeometry x="1723.5" y="831" width="20" height="30" as="geometry" />
        </mxCell>
        <mxCell id="TeYbG6EXB1Ewo-bh0uWP-128" value="" style="endArrow=classic;html=1;rounded=0;exitX=1;exitY=0.5;exitDx=0;exitDy=0;entryX=0.5;entryY=0;entryDx=0;entryDy=0;" parent="1" source="TeYbG6EXB1Ewo-bh0uWP-108" target="TeYbG6EXB1Ewo-bh0uWP-125" edge="1">
          <mxGeometry width="50" height="50" relative="1" as="geometry">
            <mxPoint x="1701.5" y="724.5" as="sourcePoint" />
            <mxPoint x="1649.5" y="815.5" as="targetPoint" />
            <Array as="points">
              <mxPoint x="1730.5" y="735" />
            </Array>
          </mxGeometry>
        </mxCell>
        <mxCell id="TeYbG6EXB1Ewo-bh0uWP-129" value="" style="endArrow=classic;html=1;rounded=0;exitX=1;exitY=0.5;exitDx=0;exitDy=0;entryX=0;entryY=0.5;entryDx=0;entryDy=0;" parent="1" source="TeYbG6EXB1Ewo-bh0uWP-104" target="TeYbG6EXB1Ewo-bh0uWP-125" edge="1">
          <mxGeometry width="50" height="50" relative="1" as="geometry">
            <mxPoint x="1360.5" y="856" as="sourcePoint" />
            <mxPoint x="1418.5" y="856" as="targetPoint" />
            <Array as="points" />
          </mxGeometry>
        </mxCell>
        <mxCell id="TeYbG6EXB1Ewo-bh0uWP-130" value="" style="endArrow=classic;html=1;rounded=0;exitX=1;exitY=0.5;exitDx=0;exitDy=0;entryX=0.5;entryY=0;entryDx=0;entryDy=0;" parent="1" edge="1">
          <mxGeometry width="50" height="50" relative="1" as="geometry">
            <mxPoint x="1631.5" y="957" as="sourcePoint" />
            <mxPoint x="1730.5" y="866" as="targetPoint" />
            <Array as="points">
              <mxPoint x="1731.5" y="957" />
            </Array>
          </mxGeometry>
        </mxCell>
        <mxCell id="TeYbG6EXB1Ewo-bh0uWP-131" value="&lt;font face=&quot;Times New Roman&quot;&gt;&lt;span style=&quot;font-size: 15px;&quot;&gt;&lt;b&gt;J1&lt;/b&gt;&lt;/span&gt;&lt;/font&gt;" style="text;html=1;align=center;verticalAlign=middle;whiteSpace=wrap;rounded=0;" parent="1" vertex="1">
          <mxGeometry x="1451.5" y="856" width="20" height="30" as="geometry" />
        </mxCell>
        <mxCell id="TeYbG6EXB1Ewo-bh0uWP-132" value="&lt;font face=&quot;Times New Roman&quot;&gt;&lt;span style=&quot;font-size: 15px;&quot;&gt;&lt;b&gt;J2&lt;/b&gt;&lt;/span&gt;&lt;/font&gt;" style="text;html=1;align=center;verticalAlign=middle;whiteSpace=wrap;rounded=0;" parent="1" vertex="1">
          <mxGeometry x="1751.5" y="856" width="20" height="30" as="geometry" />
        </mxCell>
        <mxCell id="TeYbG6EXB1Ewo-bh0uWP-133" value="" style="endArrow=classic;html=1;rounded=0;exitX=1;exitY=0.5;exitDx=0;exitDy=0;entryX=0;entryY=0.5;entryDx=0;entryDy=0;" parent="1" source="TeYbG6EXB1Ewo-bh0uWP-125" target="TeYbG6EXB1Ewo-bh0uWP-120" edge="1">
          <mxGeometry width="50" height="50" relative="1" as="geometry">
            <mxPoint x="1540.5" y="841" as="sourcePoint" />
            <mxPoint x="1590.5" y="791" as="targetPoint" />
          </mxGeometry>
        </mxCell>
        <mxCell id="TeYbG6EXB1Ewo-bh0uWP-134" value="" style="endArrow=classic;html=1;rounded=0;exitX=1;exitY=0.5;exitDx=0;exitDy=0;entryX=0;entryY=0.5;entryDx=0;entryDy=0;" parent="1" edge="1">
          <mxGeometry width="50" height="50" relative="1" as="geometry">
            <mxPoint x="1970.5" y="845.71" as="sourcePoint" />
            <mxPoint x="2051.5" y="845.71" as="targetPoint" />
          </mxGeometry>
        </mxCell>
        <mxCell id="TeYbG6EXB1Ewo-bh0uWP-136" value="Покупка товара" style="rounded=0;whiteSpace=wrap;html=1;" parent="1" vertex="1">
          <mxGeometry x="2050.5" y="801" width="140" height="90" as="geometry" />
        </mxCell>
        <mxCell id="TeYbG6EXB1Ewo-bh0uWP-137" value="" style="endArrow=none;html=1;rounded=0;exitX=0;exitY=0.25;exitDx=0;exitDy=0;entryX=0.159;entryY=0.009;entryDx=0;entryDy=0;entryPerimeter=0;" parent="1" source="TeYbG6EXB1Ewo-bh0uWP-136" target="TeYbG6EXB1Ewo-bh0uWP-136" edge="1">
          <mxGeometry width="50" height="50" relative="1" as="geometry">
            <mxPoint x="1976.5" y="911" as="sourcePoint" />
            <mxPoint x="2026.5" y="861" as="targetPoint" />
          </mxGeometry>
        </mxCell>
        <mxCell id="TeYbG6EXB1Ewo-bh0uWP-138" value="" style="endArrow=none;html=1;rounded=0;exitX=0;exitY=0.75;exitDx=0;exitDy=0;entryX=1;entryY=0.75;entryDx=0;entryDy=0;" parent="1" source="TeYbG6EXB1Ewo-bh0uWP-136" target="TeYbG6EXB1Ewo-bh0uWP-136" edge="1">
          <mxGeometry width="50" height="50" relative="1" as="geometry">
            <mxPoint x="2180.5" y="701" as="sourcePoint" />
            <mxPoint x="2230.5" y="651" as="targetPoint" />
          </mxGeometry>
        </mxCell>
        <mxCell id="TeYbG6EXB1Ewo-bh0uWP-139" value="" style="endArrow=none;html=1;rounded=0;exitX=0.5;exitY=1;exitDx=0;exitDy=0;" parent="1" source="TeYbG6EXB1Ewo-bh0uWP-136" edge="1">
          <mxGeometry width="50" height="50" relative="1" as="geometry">
            <mxPoint x="2120.5" y="888" as="sourcePoint" />
            <mxPoint x="2120.5" y="868" as="targetPoint" />
          </mxGeometry>
        </mxCell>
        <mxCell id="TeYbG6EXB1Ewo-bh0uWP-140" value="A2.1.5" style="text;html=1;align=center;verticalAlign=middle;whiteSpace=wrap;rounded=0;" parent="1" vertex="1">
          <mxGeometry x="2054.5" y="866" width="60" height="30" as="geometry" />
        </mxCell>
        <mxCell id="TeYbG6EXB1Ewo-bh0uWP-141" value="" style="endArrow=classic;html=1;rounded=0;exitX=1;exitY=0.5;exitDx=0;exitDy=0;" parent="1" edge="1">
          <mxGeometry width="50" height="50" relative="1" as="geometry">
            <mxPoint x="2190.5" y="845.71" as="sourcePoint" />
            <mxPoint x="2302" y="846" as="targetPoint" />
          </mxGeometry>
        </mxCell>
        <mxCell id="TeYbG6EXB1Ewo-bh0uWP-142" value="Купленный товар" style="text;html=1;align=center;verticalAlign=middle;resizable=0;points=[];autosize=1;strokeColor=none;fillColor=none;" parent="1" vertex="1">
          <mxGeometry x="2193.5" y="811" width="115" height="26" as="geometry" />
        </mxCell>
        <mxCell id="TeYbG6EXB1Ewo-bh0uWP-143" value="Отображение формы обратной связи" style="rounded=0;whiteSpace=wrap;html=1;" parent="1" vertex="1">
          <mxGeometry x="1332" y="1325" width="140" height="90" as="geometry" />
        </mxCell>
        <mxCell id="TeYbG6EXB1Ewo-bh0uWP-144" value="" style="endArrow=none;html=1;rounded=0;exitX=0;exitY=0.25;exitDx=0;exitDy=0;entryX=0.159;entryY=0.009;entryDx=0;entryDy=0;entryPerimeter=0;" parent="1" source="TeYbG6EXB1Ewo-bh0uWP-143" target="TeYbG6EXB1Ewo-bh0uWP-143" edge="1">
          <mxGeometry width="50" height="50" relative="1" as="geometry">
            <mxPoint x="1258" y="1435" as="sourcePoint" />
            <mxPoint x="1308" y="1385" as="targetPoint" />
          </mxGeometry>
        </mxCell>
        <mxCell id="TeYbG6EXB1Ewo-bh0uWP-145" value="" style="endArrow=none;html=1;rounded=0;exitX=0;exitY=0.75;exitDx=0;exitDy=0;entryX=1;entryY=0.75;entryDx=0;entryDy=0;" parent="1" source="TeYbG6EXB1Ewo-bh0uWP-143" target="TeYbG6EXB1Ewo-bh0uWP-143" edge="1">
          <mxGeometry width="50" height="50" relative="1" as="geometry">
            <mxPoint x="1462" y="1225" as="sourcePoint" />
            <mxPoint x="1512" y="1175" as="targetPoint" />
          </mxGeometry>
        </mxCell>
        <mxCell id="TeYbG6EXB1Ewo-bh0uWP-146" value="" style="endArrow=none;html=1;rounded=0;exitX=0.5;exitY=1;exitDx=0;exitDy=0;" parent="1" source="TeYbG6EXB1Ewo-bh0uWP-143" edge="1">
          <mxGeometry width="50" height="50" relative="1" as="geometry">
            <mxPoint x="1402" y="1412" as="sourcePoint" />
            <mxPoint x="1402" y="1392" as="targetPoint" />
          </mxGeometry>
        </mxCell>
        <mxCell id="TeYbG6EXB1Ewo-bh0uWP-147" value="A3.1.1" style="text;html=1;align=center;verticalAlign=middle;whiteSpace=wrap;rounded=0;" parent="1" vertex="1">
          <mxGeometry x="1336" y="1390" width="60" height="30" as="geometry" />
        </mxCell>
        <mxCell id="TeYbG6EXB1Ewo-bh0uWP-148" value="Проведенная услуга" style="rounded=0;whiteSpace=wrap;html=1;" parent="1" vertex="1">
          <mxGeometry x="1332" y="1455" width="140" height="70" as="geometry" />
        </mxCell>
        <mxCell id="TeYbG6EXB1Ewo-bh0uWP-149" value="" style="endArrow=none;html=1;rounded=0;exitX=0;exitY=0.25;exitDx=0;exitDy=0;entryX=0.159;entryY=0.009;entryDx=0;entryDy=0;entryPerimeter=0;" parent="1" source="TeYbG6EXB1Ewo-bh0uWP-148" target="TeYbG6EXB1Ewo-bh0uWP-148" edge="1">
          <mxGeometry width="50" height="50" relative="1" as="geometry">
            <mxPoint x="1258" y="1565" as="sourcePoint" />
            <mxPoint x="1308" y="1515" as="targetPoint" />
          </mxGeometry>
        </mxCell>
        <mxCell id="TeYbG6EXB1Ewo-bh0uWP-150" value="" style="endArrow=none;dashed=1;html=1;rounded=0;exitX=0.5;exitY=0;exitDx=0;exitDy=0;entryX=0.5;entryY=1;entryDx=0;entryDy=0;" parent="1" source="TeYbG6EXB1Ewo-bh0uWP-148" target="TeYbG6EXB1Ewo-bh0uWP-143" edge="1">
          <mxGeometry width="50" height="50" relative="1" as="geometry">
            <mxPoint x="1482" y="1385" as="sourcePoint" />
            <mxPoint x="1532" y="1335" as="targetPoint" />
          </mxGeometry>
        </mxCell>
        <mxCell id="TeYbG6EXB1Ewo-bh0uWP-151" value="Пользователь" style="rounded=0;whiteSpace=wrap;html=1;" parent="1" vertex="1">
          <mxGeometry x="1332" y="1214" width="140" height="70" as="geometry" />
        </mxCell>
        <mxCell id="TeYbG6EXB1Ewo-bh0uWP-152" value="" style="endArrow=none;html=1;rounded=0;exitX=0;exitY=0.25;exitDx=0;exitDy=0;entryX=0.159;entryY=0.009;entryDx=0;entryDy=0;entryPerimeter=0;" parent="1" source="TeYbG6EXB1Ewo-bh0uWP-151" target="TeYbG6EXB1Ewo-bh0uWP-151" edge="1">
          <mxGeometry width="50" height="50" relative="1" as="geometry">
            <mxPoint x="1258" y="1315" as="sourcePoint" />
            <mxPoint x="1308" y="1265" as="targetPoint" />
          </mxGeometry>
        </mxCell>
        <mxCell id="TeYbG6EXB1Ewo-bh0uWP-153" value="" style="endArrow=none;dashed=1;html=1;rounded=0;exitX=0.5;exitY=0;exitDx=0;exitDy=0;entryX=0.5;entryY=1;entryDx=0;entryDy=0;" parent="1" edge="1">
          <mxGeometry width="50" height="50" relative="1" as="geometry">
            <mxPoint x="1401.8" y="1325" as="sourcePoint" />
            <mxPoint x="1401.8" y="1285" as="targetPoint" />
          </mxGeometry>
        </mxCell>
        <mxCell id="TeYbG6EXB1Ewo-bh0uWP-154" value="" style="endArrow=classic;html=1;rounded=0;exitX=1.012;exitY=0.556;exitDx=0;exitDy=0;exitPerimeter=0;entryX=0;entryY=0.5;entryDx=0;entryDy=0;" parent="1" source="TeYbG6EXB1Ewo-bh0uWP-143" edge="1">
          <mxGeometry width="50" height="50" relative="1" as="geometry">
            <mxPoint x="1662" y="1374" as="sourcePoint" />
            <mxPoint x="1522" y="1375" as="targetPoint" />
          </mxGeometry>
        </mxCell>
        <mxCell id="TeYbG6EXB1Ewo-bh0uWP-155" value="" style="rounded=0;whiteSpace=wrap;html=1;" parent="1" vertex="1">
          <mxGeometry x="1522" y="1354" width="40" height="40" as="geometry" />
        </mxCell>
        <mxCell id="TeYbG6EXB1Ewo-bh0uWP-156" value="" style="endArrow=none;html=1;rounded=0;exitX=0.25;exitY=1;exitDx=0;exitDy=0;entryX=0.25;entryY=0;entryDx=0;entryDy=0;" parent="1" source="TeYbG6EXB1Ewo-bh0uWP-155" target="TeYbG6EXB1Ewo-bh0uWP-155" edge="1">
          <mxGeometry width="50" height="50" relative="1" as="geometry">
            <mxPoint x="1582" y="1369" as="sourcePoint" />
            <mxPoint x="1632" y="1319" as="targetPoint" />
          </mxGeometry>
        </mxCell>
        <mxCell id="TeYbG6EXB1Ewo-bh0uWP-157" value="&lt;font face=&quot;Times New Roman&quot;&gt;&lt;span style=&quot;font-size: 15px;&quot;&gt;&lt;b&gt;O&lt;/b&gt;&lt;/span&gt;&lt;/font&gt;" style="text;html=1;align=center;verticalAlign=middle;whiteSpace=wrap;rounded=0;" parent="1" vertex="1">
          <mxGeometry x="1536" y="1359" width="20" height="30" as="geometry" />
        </mxCell>
        <mxCell id="TeYbG6EXB1Ewo-bh0uWP-158" value="&lt;font face=&quot;Times New Roman&quot;&gt;&lt;span style=&quot;font-size: 15px;&quot;&gt;&lt;b&gt;J8&lt;/b&gt;&lt;/span&gt;&lt;/font&gt;" style="text;html=1;align=center;verticalAlign=middle;whiteSpace=wrap;rounded=0;" parent="1" vertex="1">
          <mxGeometry x="1565" y="1384" width="20" height="30" as="geometry" />
        </mxCell>
        <mxCell id="TeYbG6EXB1Ewo-bh0uWP-159" value="Написание комментария" style="rounded=0;whiteSpace=wrap;html=1;" parent="1" vertex="1">
          <mxGeometry x="1602" y="1218" width="140" height="90" as="geometry" />
        </mxCell>
        <mxCell id="TeYbG6EXB1Ewo-bh0uWP-160" value="" style="endArrow=none;html=1;rounded=0;exitX=0;exitY=0.25;exitDx=0;exitDy=0;entryX=0.159;entryY=0.009;entryDx=0;entryDy=0;entryPerimeter=0;" parent="1" source="TeYbG6EXB1Ewo-bh0uWP-159" target="TeYbG6EXB1Ewo-bh0uWP-159" edge="1">
          <mxGeometry width="50" height="50" relative="1" as="geometry">
            <mxPoint x="1528" y="1328" as="sourcePoint" />
            <mxPoint x="1578" y="1278" as="targetPoint" />
          </mxGeometry>
        </mxCell>
        <mxCell id="TeYbG6EXB1Ewo-bh0uWP-161" value="" style="endArrow=none;html=1;rounded=0;exitX=0;exitY=0.75;exitDx=0;exitDy=0;entryX=1;entryY=0.75;entryDx=0;entryDy=0;" parent="1" source="TeYbG6EXB1Ewo-bh0uWP-159" target="TeYbG6EXB1Ewo-bh0uWP-159" edge="1">
          <mxGeometry width="50" height="50" relative="1" as="geometry">
            <mxPoint x="1732" y="1118" as="sourcePoint" />
            <mxPoint x="1782" y="1068" as="targetPoint" />
          </mxGeometry>
        </mxCell>
        <mxCell id="TeYbG6EXB1Ewo-bh0uWP-162" value="" style="endArrow=none;html=1;rounded=0;exitX=0.5;exitY=1;exitDx=0;exitDy=0;" parent="1" source="TeYbG6EXB1Ewo-bh0uWP-159" edge="1">
          <mxGeometry width="50" height="50" relative="1" as="geometry">
            <mxPoint x="1672" y="1305" as="sourcePoint" />
            <mxPoint x="1672" y="1285" as="targetPoint" />
          </mxGeometry>
        </mxCell>
        <mxCell id="TeYbG6EXB1Ewo-bh0uWP-163" value="A3.1.2" style="text;html=1;align=center;verticalAlign=middle;whiteSpace=wrap;rounded=0;" parent="1" vertex="1">
          <mxGeometry x="1606" y="1283" width="60" height="30" as="geometry" />
        </mxCell>
        <mxCell id="TeYbG6EXB1Ewo-bh0uWP-164" value="Выбор рейтинга оценки качества товара" style="rounded=0;whiteSpace=wrap;html=1;" parent="1" vertex="1">
          <mxGeometry x="1603" y="1431.5" width="140" height="90" as="geometry" />
        </mxCell>
        <mxCell id="TeYbG6EXB1Ewo-bh0uWP-165" value="" style="endArrow=none;html=1;rounded=0;exitX=0;exitY=0.25;exitDx=0;exitDy=0;entryX=0.159;entryY=0.009;entryDx=0;entryDy=0;entryPerimeter=0;" parent="1" source="TeYbG6EXB1Ewo-bh0uWP-164" target="TeYbG6EXB1Ewo-bh0uWP-164" edge="1">
          <mxGeometry width="50" height="50" relative="1" as="geometry">
            <mxPoint x="1529" y="1541.5" as="sourcePoint" />
            <mxPoint x="1579" y="1491.5" as="targetPoint" />
          </mxGeometry>
        </mxCell>
        <mxCell id="TeYbG6EXB1Ewo-bh0uWP-166" value="" style="endArrow=none;html=1;rounded=0;exitX=0;exitY=0.75;exitDx=0;exitDy=0;entryX=1;entryY=0.75;entryDx=0;entryDy=0;" parent="1" source="TeYbG6EXB1Ewo-bh0uWP-164" target="TeYbG6EXB1Ewo-bh0uWP-164" edge="1">
          <mxGeometry width="50" height="50" relative="1" as="geometry">
            <mxPoint x="1733" y="1331.5" as="sourcePoint" />
            <mxPoint x="1783" y="1281.5" as="targetPoint" />
          </mxGeometry>
        </mxCell>
        <mxCell id="TeYbG6EXB1Ewo-bh0uWP-167" value="" style="endArrow=none;html=1;rounded=0;exitX=0.5;exitY=1;exitDx=0;exitDy=0;" parent="1" source="TeYbG6EXB1Ewo-bh0uWP-164" edge="1">
          <mxGeometry width="50" height="50" relative="1" as="geometry">
            <mxPoint x="1673" y="1518.5" as="sourcePoint" />
            <mxPoint x="1673" y="1498.5" as="targetPoint" />
          </mxGeometry>
        </mxCell>
        <mxCell id="TeYbG6EXB1Ewo-bh0uWP-168" value="A3.1.3" style="text;html=1;align=center;verticalAlign=middle;whiteSpace=wrap;rounded=0;" parent="1" vertex="1">
          <mxGeometry x="1607" y="1496.5" width="60" height="30" as="geometry" />
        </mxCell>
        <mxCell id="TeYbG6EXB1Ewo-bh0uWP-169" value="" style="endArrow=classic;html=1;rounded=0;exitX=0.75;exitY=0;exitDx=0;exitDy=0;entryX=0;entryY=0.5;entryDx=0;entryDy=0;" parent="1" edge="1">
          <mxGeometry width="50" height="50" relative="1" as="geometry">
            <mxPoint x="1549" y="1354" as="sourcePoint" />
            <mxPoint x="1601" y="1263" as="targetPoint" />
            <Array as="points">
              <mxPoint x="1549" y="1263" />
            </Array>
          </mxGeometry>
        </mxCell>
        <mxCell id="TeYbG6EXB1Ewo-bh0uWP-170" value="" style="endArrow=classic;html=1;rounded=0;exitX=0.75;exitY=0;exitDx=0;exitDy=0;entryX=0;entryY=0.5;entryDx=0;entryDy=0;" parent="1" edge="1">
          <mxGeometry width="50" height="50" relative="1" as="geometry">
            <mxPoint x="1550" y="1394" as="sourcePoint" />
            <mxPoint x="1602" y="1485" as="targetPoint" />
            <Array as="points">
              <mxPoint x="1550" y="1485" />
            </Array>
          </mxGeometry>
        </mxCell>
        <mxCell id="TeYbG6EXB1Ewo-bh0uWP-171" value="" style="rounded=0;whiteSpace=wrap;html=1;" parent="1" vertex="1">
          <mxGeometry x="1785" y="1354" width="40" height="40" as="geometry" />
        </mxCell>
        <mxCell id="TeYbG6EXB1Ewo-bh0uWP-172" value="" style="endArrow=none;html=1;rounded=0;exitX=0.25;exitY=1;exitDx=0;exitDy=0;entryX=0.25;entryY=0;entryDx=0;entryDy=0;" parent="1" source="TeYbG6EXB1Ewo-bh0uWP-171" target="TeYbG6EXB1Ewo-bh0uWP-171" edge="1">
          <mxGeometry width="50" height="50" relative="1" as="geometry">
            <mxPoint x="1845" y="1369" as="sourcePoint" />
            <mxPoint x="1895" y="1319" as="targetPoint" />
          </mxGeometry>
        </mxCell>
        <mxCell id="TeYbG6EXB1Ewo-bh0uWP-173" value="&lt;b style=&quot;font-family: &amp;quot;Times New Roman&amp;quot;; font-size: 15px;&quot;&gt;O&lt;/b&gt;" style="text;html=1;align=center;verticalAlign=middle;whiteSpace=wrap;rounded=0;" parent="1" vertex="1">
          <mxGeometry x="1799" y="1359" width="20" height="30" as="geometry" />
        </mxCell>
        <mxCell id="TeYbG6EXB1Ewo-bh0uWP-174" value="&lt;font face=&quot;Times New Roman&quot;&gt;&lt;span style=&quot;font-size: 15px;&quot;&gt;&lt;b&gt;J9&lt;/b&gt;&lt;/span&gt;&lt;/font&gt;" style="text;html=1;align=center;verticalAlign=middle;whiteSpace=wrap;rounded=0;" parent="1" vertex="1">
          <mxGeometry x="1828" y="1384" width="20" height="30" as="geometry" />
        </mxCell>
        <mxCell id="TeYbG6EXB1Ewo-bh0uWP-175" value="" style="endArrow=classic;html=1;rounded=0;exitX=1;exitY=0.5;exitDx=0;exitDy=0;entryX=0.5;entryY=0;entryDx=0;entryDy=0;" parent="1" target="TeYbG6EXB1Ewo-bh0uWP-171" edge="1">
          <mxGeometry width="50" height="50" relative="1" as="geometry">
            <mxPoint x="1742" y="1263" as="sourcePoint" />
            <mxPoint x="1841" y="1354" as="targetPoint" />
            <Array as="points">
              <mxPoint x="1805" y="1263" />
            </Array>
          </mxGeometry>
        </mxCell>
        <mxCell id="TeYbG6EXB1Ewo-bh0uWP-176" value="" style="endArrow=classic;html=1;rounded=0;exitX=0.999;exitY=0.569;exitDx=0;exitDy=0;entryX=0.5;entryY=1;entryDx=0;entryDy=0;exitPerimeter=0;" parent="1" source="TeYbG6EXB1Ewo-bh0uWP-164" target="TeYbG6EXB1Ewo-bh0uWP-171" edge="1">
          <mxGeometry width="50" height="50" relative="1" as="geometry">
            <mxPoint x="1743" y="1484" as="sourcePoint" />
            <mxPoint x="1842" y="1393" as="targetPoint" />
            <Array as="points">
              <mxPoint x="1805" y="1483" />
            </Array>
          </mxGeometry>
        </mxCell>
        <mxCell id="TeYbG6EXB1Ewo-bh0uWP-177" value="" style="endArrow=classic;html=1;rounded=0;exitX=1;exitY=0.5;exitDx=0;exitDy=0;" parent="1" edge="1">
          <mxGeometry width="50" height="50" relative="1" as="geometry">
            <mxPoint x="1825" y="1373.4099999999999" as="sourcePoint" />
            <mxPoint x="1873" y="1373" as="targetPoint" />
          </mxGeometry>
        </mxCell>
        <mxCell id="TeYbG6EXB1Ewo-bh0uWP-178" value="Отправка отзыва" style="rounded=0;whiteSpace=wrap;html=1;" parent="1" vertex="1">
          <mxGeometry x="1872" y="1326.5" width="140" height="90" as="geometry" />
        </mxCell>
        <mxCell id="TeYbG6EXB1Ewo-bh0uWP-179" value="" style="endArrow=none;html=1;rounded=0;exitX=0;exitY=0.25;exitDx=0;exitDy=0;entryX=0.159;entryY=0.009;entryDx=0;entryDy=0;entryPerimeter=0;" parent="1" source="TeYbG6EXB1Ewo-bh0uWP-178" target="TeYbG6EXB1Ewo-bh0uWP-178" edge="1">
          <mxGeometry width="50" height="50" relative="1" as="geometry">
            <mxPoint x="1798" y="1436.5" as="sourcePoint" />
            <mxPoint x="1848" y="1386.5" as="targetPoint" />
          </mxGeometry>
        </mxCell>
        <mxCell id="TeYbG6EXB1Ewo-bh0uWP-180" value="" style="endArrow=none;html=1;rounded=0;exitX=0;exitY=0.75;exitDx=0;exitDy=0;entryX=1;entryY=0.75;entryDx=0;entryDy=0;" parent="1" source="TeYbG6EXB1Ewo-bh0uWP-178" target="TeYbG6EXB1Ewo-bh0uWP-178" edge="1">
          <mxGeometry width="50" height="50" relative="1" as="geometry">
            <mxPoint x="2002" y="1226.5" as="sourcePoint" />
            <mxPoint x="2052" y="1176.5" as="targetPoint" />
          </mxGeometry>
        </mxCell>
        <mxCell id="TeYbG6EXB1Ewo-bh0uWP-181" value="" style="endArrow=none;html=1;rounded=0;exitX=0.5;exitY=1;exitDx=0;exitDy=0;" parent="1" source="TeYbG6EXB1Ewo-bh0uWP-178" edge="1">
          <mxGeometry width="50" height="50" relative="1" as="geometry">
            <mxPoint x="1942" y="1413.5" as="sourcePoint" />
            <mxPoint x="1942" y="1393.5" as="targetPoint" />
          </mxGeometry>
        </mxCell>
        <mxCell id="TeYbG6EXB1Ewo-bh0uWP-182" value="A3.1.4" style="text;html=1;align=center;verticalAlign=middle;whiteSpace=wrap;rounded=0;" parent="1" vertex="1">
          <mxGeometry x="1876" y="1391.5" width="60" height="30" as="geometry" />
        </mxCell>
        <mxCell id="TeYbG6EXB1Ewo-bh0uWP-183" value="" style="endArrow=classic;html=1;rounded=0;exitX=1;exitY=0.5;exitDx=0;exitDy=0;" parent="1" edge="1">
          <mxGeometry width="50" height="50" relative="1" as="geometry">
            <mxPoint x="2012" y="1374.08" as="sourcePoint" />
            <mxPoint x="2093" y="1374" as="targetPoint" />
          </mxGeometry>
        </mxCell>
        <mxCell id="TeYbG6EXB1Ewo-bh0uWP-184" value="Отзыв" style="text;html=1;align=center;verticalAlign=middle;resizable=0;points=[];autosize=1;strokeColor=none;fillColor=none;" parent="1" vertex="1">
          <mxGeometry x="2029" y="1344" width="60" height="30" as="geometry" />
        </mxCell>
        <mxCell id="IJslrshVnRdPoT8rU-hl-1" value="Service" style="swimlane;fontStyle=1;align=center;verticalAlign=top;childLayout=stackLayout;horizontal=1;startSize=26;horizontalStack=0;resizeParent=1;resizeParentMax=0;resizeLast=0;collapsible=1;marginBottom=0;whiteSpace=wrap;html=1;" parent="1" vertex="1">
          <mxGeometry x="380" y="1826" width="160" height="216" as="geometry" />
        </mxCell>
        <mxCell id="IJslrshVnRdPoT8rU-hl-2" value="+ id: int" style="text;strokeColor=none;fillColor=none;align=left;verticalAlign=top;spacingLeft=4;spacingRight=4;overflow=hidden;rotatable=0;points=[[0,0.5],[1,0.5]];portConstraint=eastwest;whiteSpace=wrap;html=1;" parent="IJslrshVnRdPoT8rU-hl-1" vertex="1">
          <mxGeometry y="26" width="160" height="26" as="geometry" />
        </mxCell>
        <mxCell id="IJslrshVnRdPoT8rU-hl-3" value="+ name: string" style="text;strokeColor=none;fillColor=none;align=left;verticalAlign=top;spacingLeft=4;spacingRight=4;overflow=hidden;rotatable=0;points=[[0,0.5],[1,0.5]];portConstraint=eastwest;whiteSpace=wrap;html=1;" parent="IJslrshVnRdPoT8rU-hl-1" vertex="1">
          <mxGeometry y="52" width="160" height="26" as="geometry" />
        </mxCell>
        <mxCell id="IJslrshVnRdPoT8rU-hl-4" value="+ description: string" style="text;strokeColor=none;fillColor=none;align=left;verticalAlign=top;spacingLeft=4;spacingRight=4;overflow=hidden;rotatable=0;points=[[0,0.5],[1,0.5]];portConstraint=eastwest;whiteSpace=wrap;html=1;" parent="IJslrshVnRdPoT8rU-hl-1" vertex="1">
          <mxGeometry y="78" width="160" height="26" as="geometry" />
        </mxCell>
        <mxCell id="IJslrshVnRdPoT8rU-hl-5" value="+ price: decimal" style="text;strokeColor=none;fillColor=none;align=left;verticalAlign=top;spacingLeft=4;spacingRight=4;overflow=hidden;rotatable=0;points=[[0,0.5],[1,0.5]];portConstraint=eastwest;whiteSpace=wrap;html=1;" parent="IJslrshVnRdPoT8rU-hl-1" vertex="1">
          <mxGeometry y="104" width="160" height="26" as="geometry" />
        </mxCell>
        <mxCell id="IJslrshVnRdPoT8rU-hl-6" value="" style="line;strokeWidth=1;fillColor=none;align=left;verticalAlign=middle;spacingTop=-1;spacingLeft=3;spacingRight=3;rotatable=0;labelPosition=right;points=[];portConstraint=eastwest;strokeColor=inherit;" parent="IJslrshVnRdPoT8rU-hl-1" vertex="1">
          <mxGeometry y="130" width="160" height="8" as="geometry" />
        </mxCell>
        <mxCell id="IJslrshVnRdPoT8rU-hl-7" value="+ addService()" style="text;strokeColor=none;fillColor=none;align=left;verticalAlign=top;spacingLeft=4;spacingRight=4;overflow=hidden;rotatable=0;points=[[0,0.5],[1,0.5]];portConstraint=eastwest;whiteSpace=wrap;html=1;" parent="IJslrshVnRdPoT8rU-hl-1" vertex="1">
          <mxGeometry y="138" width="160" height="26" as="geometry" />
        </mxCell>
        <mxCell id="IJslrshVnRdPoT8rU-hl-8" value="+ updateService()" style="text;strokeColor=none;fillColor=none;align=left;verticalAlign=top;spacingLeft=4;spacingRight=4;overflow=hidden;rotatable=0;points=[[0,0.5],[1,0.5]];portConstraint=eastwest;whiteSpace=wrap;html=1;" parent="IJslrshVnRdPoT8rU-hl-1" vertex="1">
          <mxGeometry y="164" width="160" height="26" as="geometry" />
        </mxCell>
        <mxCell id="IJslrshVnRdPoT8rU-hl-9" value="+ deleteService()" style="text;strokeColor=none;fillColor=none;align=left;verticalAlign=top;spacingLeft=4;spacingRight=4;overflow=hidden;rotatable=0;points=[[0,0.5],[1,0.5]];portConstraint=eastwest;whiteSpace=wrap;html=1;" parent="IJslrshVnRdPoT8rU-hl-1" vertex="1">
          <mxGeometry y="190" width="160" height="26" as="geometry" />
        </mxCell>
        <mxCell id="IJslrshVnRdPoT8rU-hl-10" value="Employee" style="swimlane;fontStyle=1;align=center;verticalAlign=top;childLayout=stackLayout;horizontal=1;startSize=26;horizontalStack=0;resizeParent=1;resizeParentMax=0;resizeLast=0;collapsible=1;marginBottom=0;whiteSpace=wrap;html=1;" parent="1" vertex="1">
          <mxGeometry x="260" y="2183" width="220" height="268" as="geometry" />
        </mxCell>
        <mxCell id="IJslrshVnRdPoT8rU-hl-11" value="+ id: int" style="text;strokeColor=none;fillColor=none;align=left;verticalAlign=top;spacingLeft=4;spacingRight=4;overflow=hidden;rotatable=0;points=[[0,0.5],[1,0.5]];portConstraint=eastwest;whiteSpace=wrap;html=1;" parent="IJslrshVnRdPoT8rU-hl-10" vertex="1">
          <mxGeometry y="26" width="220" height="26" as="geometry" />
        </mxCell>
        <mxCell id="IJslrshVnRdPoT8rU-hl-12" value="+ name: string" style="text;strokeColor=none;fillColor=none;align=left;verticalAlign=top;spacingLeft=4;spacingRight=4;overflow=hidden;rotatable=0;points=[[0,0.5],[1,0.5]];portConstraint=eastwest;whiteSpace=wrap;html=1;" parent="IJslrshVnRdPoT8rU-hl-10" vertex="1">
          <mxGeometry y="52" width="220" height="26" as="geometry" />
        </mxCell>
        <mxCell id="IJslrshVnRdPoT8rU-hl-13" value="+ specialization: string" style="text;strokeColor=none;fillColor=none;align=left;verticalAlign=top;spacingLeft=4;spacingRight=4;overflow=hidden;rotatable=0;points=[[0,0.5],[1,0.5]];portConstraint=eastwest;whiteSpace=wrap;html=1;" parent="IJslrshVnRdPoT8rU-hl-10" vertex="1">
          <mxGeometry y="78" width="220" height="26" as="geometry" />
        </mxCell>
        <mxCell id="IJslrshVnRdPoT8rU-hl-14" value="+ rating: float" style="text;strokeColor=none;fillColor=none;align=left;verticalAlign=top;spacingLeft=4;spacingRight=4;overflow=hidden;rotatable=0;points=[[0,0.5],[1,0.5]];portConstraint=eastwest;whiteSpace=wrap;html=1;" parent="IJslrshVnRdPoT8rU-hl-10" vertex="1">
          <mxGeometry y="104" width="220" height="26" as="geometry" />
        </mxCell>
        <mxCell id="IJslrshVnRdPoT8rU-hl-15" value="" style="line;strokeWidth=1;fillColor=none;align=left;verticalAlign=middle;spacingTop=-1;spacingLeft=3;spacingRight=3;rotatable=0;labelPosition=right;points=[];portConstraint=eastwest;strokeColor=inherit;" parent="IJslrshVnRdPoT8rU-hl-10" vertex="1">
          <mxGeometry y="130" width="220" height="8" as="geometry" />
        </mxCell>
        <mxCell id="IJslrshVnRdPoT8rU-hl-16" value="+ assignToService(service: Service)" style="text;strokeColor=none;fillColor=none;align=left;verticalAlign=top;spacingLeft=4;spacingRight=4;overflow=hidden;rotatable=0;points=[[0,0.5],[1,0.5]];portConstraint=eastwest;whiteSpace=wrap;html=1;" parent="IJslrshVnRdPoT8rU-hl-10" vertex="1">
          <mxGeometry y="138" width="220" height="26" as="geometry" />
        </mxCell>
        <mxCell id="IJslrshVnRdPoT8rU-hl-17" value="+ addEmployee()" style="text;strokeColor=none;fillColor=none;align=left;verticalAlign=top;spacingLeft=4;spacingRight=4;overflow=hidden;rotatable=0;points=[[0,0.5],[1,0.5]];portConstraint=eastwest;whiteSpace=wrap;html=1;" parent="IJslrshVnRdPoT8rU-hl-10" vertex="1">
          <mxGeometry y="164" width="220" height="26" as="geometry" />
        </mxCell>
        <mxCell id="IJslrshVnRdPoT8rU-hl-18" value="+ updateEmployee()" style="text;strokeColor=none;fillColor=none;align=left;verticalAlign=top;spacingLeft=4;spacingRight=4;overflow=hidden;rotatable=0;points=[[0,0.5],[1,0.5]];portConstraint=eastwest;whiteSpace=wrap;html=1;" parent="IJslrshVnRdPoT8rU-hl-10" vertex="1">
          <mxGeometry y="190" width="220" height="26" as="geometry" />
        </mxCell>
        <mxCell id="IJslrshVnRdPoT8rU-hl-19" value="+ deleteEmployee&lt;span style=&quot;color: rgba(0, 0, 0, 0); font-family: monospace; font-size: 0px; text-wrap: nowrap;&quot;&gt;%3CmxGraphModel%3E%3Croot%3E%3CmxCell%20id%3D%220%22%2F%3E%3CmxCell%20id%3D%221%22%20parent%3D%220%22%2F%3E%3CmxCell%20id%3D%222%22%20value%3D%22%2B%20updateService()%22%20style%3D%22text%3BstrokeColor%3Dnone%3BfillColor%3Dnone%3Balign%3Dleft%3BverticalAlign%3Dtop%3BspacingLeft%3D4%3BspacingRight%3D4%3Boverflow%3Dhidden%3Brotatable%3D0%3Bpoints%3D%5B%5B0%2C0.5%5D%2C%5B1%2C0.5%5D%5D%3BportConstraint%3Deastwest%3BwhiteSpace%3Dwrap%3Bhtml%3D1%3B%22%20vertex%3D%221%22%20parent%3D%221%22%3E%3CmxGeometry%20x%3D%22280%22%20y%3D%222294%22%20width%3D%22220%22%20height%3D%2226%22%20as%3D%22geometry%22%2F%3E%3C%2FmxCell%3E%3C%2Froot%3E%3C%2FmxGraphModel%3E&lt;/span&gt;()" style="text;strokeColor=none;fillColor=none;align=left;verticalAlign=top;spacingLeft=4;spacingRight=4;overflow=hidden;rotatable=0;points=[[0,0.5],[1,0.5]];portConstraint=eastwest;whiteSpace=wrap;html=1;" parent="IJslrshVnRdPoT8rU-hl-10" vertex="1">
          <mxGeometry y="216" width="220" height="26" as="geometry" />
        </mxCell>
        <mxCell id="IJslrshVnRdPoT8rU-hl-20" value="+ getRating()" style="text;strokeColor=none;fillColor=none;align=left;verticalAlign=top;spacingLeft=4;spacingRight=4;overflow=hidden;rotatable=0;points=[[0,0.5],[1,0.5]];portConstraint=eastwest;whiteSpace=wrap;html=1;" parent="IJslrshVnRdPoT8rU-hl-10" vertex="1">
          <mxGeometry y="242" width="220" height="26" as="geometry" />
        </mxCell>
        <mxCell id="IJslrshVnRdPoT8rU-hl-29" value="Registration" style="swimlane;fontStyle=1;align=center;verticalAlign=top;childLayout=stackLayout;horizontal=1;startSize=26;horizontalStack=0;resizeParent=1;resizeParentMax=0;resizeLast=0;collapsible=1;marginBottom=0;whiteSpace=wrap;html=1;" parent="1" vertex="1">
          <mxGeometry x="631" y="2130" width="160" height="216" as="geometry" />
        </mxCell>
        <mxCell id="IJslrshVnRdPoT8rU-hl-30" value="+ id: int" style="text;strokeColor=none;fillColor=none;align=left;verticalAlign=top;spacingLeft=4;spacingRight=4;overflow=hidden;rotatable=0;points=[[0,0.5],[1,0.5]];portConstraint=eastwest;whiteSpace=wrap;html=1;" parent="IJslrshVnRdPoT8rU-hl-29" vertex="1">
          <mxGeometry y="26" width="160" height="26" as="geometry" />
        </mxCell>
        <mxCell id="IJslrshVnRdPoT8rU-hl-31" value="+ clientName: string" style="text;strokeColor=none;fillColor=none;align=left;verticalAlign=top;spacingLeft=4;spacingRight=4;overflow=hidden;rotatable=0;points=[[0,0.5],[1,0.5]];portConstraint=eastwest;whiteSpace=wrap;html=1;" parent="IJslrshVnRdPoT8rU-hl-29" vertex="1">
          <mxGeometry y="52" width="160" height="26" as="geometry" />
        </mxCell>
        <mxCell id="IJslrshVnRdPoT8rU-hl-32" value="+ service: Service" style="text;strokeColor=none;fillColor=none;align=left;verticalAlign=top;spacingLeft=4;spacingRight=4;overflow=hidden;rotatable=0;points=[[0,0.5],[1,0.5]];portConstraint=eastwest;whiteSpace=wrap;html=1;" parent="IJslrshVnRdPoT8rU-hl-29" vertex="1">
          <mxGeometry y="78" width="160" height="26" as="geometry" />
        </mxCell>
        <mxCell id="IJslrshVnRdPoT8rU-hl-33" value="+ employee: Employee" style="text;strokeColor=none;fillColor=none;align=left;verticalAlign=top;spacingLeft=4;spacingRight=4;overflow=hidden;rotatable=0;points=[[0,0.5],[1,0.5]];portConstraint=eastwest;whiteSpace=wrap;html=1;" parent="IJslrshVnRdPoT8rU-hl-29" vertex="1">
          <mxGeometry y="104" width="160" height="26" as="geometry" />
        </mxCell>
        <mxCell id="IJslrshVnRdPoT8rU-hl-34" value="+ dateTime: datetime" style="text;strokeColor=none;fillColor=none;align=left;verticalAlign=top;spacingLeft=4;spacingRight=4;overflow=hidden;rotatable=0;points=[[0,0.5],[1,0.5]];portConstraint=eastwest;whiteSpace=wrap;html=1;" parent="IJslrshVnRdPoT8rU-hl-29" vertex="1">
          <mxGeometry y="130" width="160" height="26" as="geometry" />
        </mxCell>
        <mxCell id="IJslrshVnRdPoT8rU-hl-35" value="" style="line;strokeWidth=1;fillColor=none;align=left;verticalAlign=middle;spacingTop=-1;spacingLeft=3;spacingRight=3;rotatable=0;labelPosition=right;points=[];portConstraint=eastwest;strokeColor=inherit;" parent="IJslrshVnRdPoT8rU-hl-29" vertex="1">
          <mxGeometry y="156" width="160" height="8" as="geometry" />
        </mxCell>
        <mxCell id="IJslrshVnRdPoT8rU-hl-36" value="+ createRegistration()" style="text;strokeColor=none;fillColor=none;align=left;verticalAlign=top;spacingLeft=4;spacingRight=4;overflow=hidden;rotatable=0;points=[[0,0.5],[1,0.5]];portConstraint=eastwest;whiteSpace=wrap;html=1;" parent="IJslrshVnRdPoT8rU-hl-29" vertex="1">
          <mxGeometry y="164" width="160" height="26" as="geometry" />
        </mxCell>
        <mxCell id="IJslrshVnRdPoT8rU-hl-37" value="+ cancelRegistration()" style="text;strokeColor=none;fillColor=none;align=left;verticalAlign=top;spacingLeft=4;spacingRight=4;overflow=hidden;rotatable=0;points=[[0,0.5],[1,0.5]];portConstraint=eastwest;whiteSpace=wrap;html=1;" parent="IJslrshVnRdPoT8rU-hl-29" vertex="1">
          <mxGeometry y="190" width="160" height="26" as="geometry" />
        </mxCell>
        <mxCell id="IJslrshVnRdPoT8rU-hl-38" value="Schedule" style="swimlane;fontStyle=1;align=center;verticalAlign=top;childLayout=stackLayout;horizontal=1;startSize=26;horizontalStack=0;resizeParent=1;resizeParentMax=0;resizeLast=0;collapsible=1;marginBottom=0;whiteSpace=wrap;html=1;" parent="1" vertex="1">
          <mxGeometry x="901" y="2250" width="180" height="190" as="geometry" />
        </mxCell>
        <mxCell id="IJslrshVnRdPoT8rU-hl-39" value="+ id: int" style="text;strokeColor=none;fillColor=none;align=left;verticalAlign=top;spacingLeft=4;spacingRight=4;overflow=hidden;rotatable=0;points=[[0,0.5],[1,0.5]];portConstraint=eastwest;whiteSpace=wrap;html=1;" parent="IJslrshVnRdPoT8rU-hl-38" vertex="1">
          <mxGeometry y="26" width="180" height="26" as="geometry" />
        </mxCell>
        <mxCell id="IJslrshVnRdPoT8rU-hl-40" value="+ employee: Employee" style="text;strokeColor=none;fillColor=none;align=left;verticalAlign=top;spacingLeft=4;spacingRight=4;overflow=hidden;rotatable=0;points=[[0,0.5],[1,0.5]];portConstraint=eastwest;whiteSpace=wrap;html=1;" parent="IJslrshVnRdPoT8rU-hl-38" vertex="1">
          <mxGeometry y="52" width="180" height="26" as="geometry" />
        </mxCell>
        <mxCell id="IJslrshVnRdPoT8rU-hl-41" value="+ availableSlots: list&amp;lt;datetime&amp;gt;" style="text;strokeColor=none;fillColor=none;align=left;verticalAlign=top;spacingLeft=4;spacingRight=4;overflow=hidden;rotatable=0;points=[[0,0.5],[1,0.5]];portConstraint=eastwest;whiteSpace=wrap;html=1;" parent="IJslrshVnRdPoT8rU-hl-38" vertex="1">
          <mxGeometry y="78" width="180" height="26" as="geometry" />
        </mxCell>
        <mxCell id="IJslrshVnRdPoT8rU-hl-42" value="+ service: Service" style="text;strokeColor=none;fillColor=none;align=left;verticalAlign=top;spacingLeft=4;spacingRight=4;overflow=hidden;rotatable=0;points=[[0,0.5],[1,0.5]];portConstraint=eastwest;whiteSpace=wrap;html=1;" parent="IJslrshVnRdPoT8rU-hl-38" vertex="1">
          <mxGeometry y="104" width="180" height="26" as="geometry" />
        </mxCell>
        <mxCell id="IJslrshVnRdPoT8rU-hl-43" value="" style="line;strokeWidth=1;fillColor=none;align=left;verticalAlign=middle;spacingTop=-1;spacingLeft=3;spacingRight=3;rotatable=0;labelPosition=right;points=[];portConstraint=eastwest;strokeColor=inherit;" parent="IJslrshVnRdPoT8rU-hl-38" vertex="1">
          <mxGeometry y="130" width="180" height="8" as="geometry" />
        </mxCell>
        <mxCell id="IJslrshVnRdPoT8rU-hl-44" value="+ assignEmployeeToService()" style="text;strokeColor=none;fillColor=none;align=left;verticalAlign=top;spacingLeft=4;spacingRight=4;overflow=hidden;rotatable=0;points=[[0,0.5],[1,0.5]];portConstraint=eastwest;whiteSpace=wrap;html=1;" parent="IJslrshVnRdPoT8rU-hl-38" vertex="1">
          <mxGeometry y="138" width="180" height="26" as="geometry" />
        </mxCell>
        <mxCell id="IJslrshVnRdPoT8rU-hl-45" value="+ getAvailableSlots()" style="text;strokeColor=none;fillColor=none;align=left;verticalAlign=top;spacingLeft=4;spacingRight=4;overflow=hidden;rotatable=0;points=[[0,0.5],[1,0.5]];portConstraint=eastwest;whiteSpace=wrap;html=1;" parent="IJslrshVnRdPoT8rU-hl-38" vertex="1">
          <mxGeometry y="164" width="180" height="26" as="geometry" />
        </mxCell>
        <mxCell id="IJslrshVnRdPoT8rU-hl-46" value="User" style="swimlane;fontStyle=1;align=center;verticalAlign=top;childLayout=stackLayout;horizontal=1;startSize=26;horizontalStack=0;resizeParent=1;resizeParentMax=0;resizeLast=0;collapsible=1;marginBottom=0;whiteSpace=wrap;html=1;" parent="1" vertex="1">
          <mxGeometry x="648" y="1712" width="160" height="294" as="geometry" />
        </mxCell>
        <mxCell id="IJslrshVnRdPoT8rU-hl-47" value="+ id: int" style="text;strokeColor=none;fillColor=none;align=left;verticalAlign=top;spacingLeft=4;spacingRight=4;overflow=hidden;rotatable=0;points=[[0,0.5],[1,0.5]];portConstraint=eastwest;whiteSpace=wrap;html=1;" parent="IJslrshVnRdPoT8rU-hl-46" vertex="1">
          <mxGeometry y="26" width="160" height="26" as="geometry" />
        </mxCell>
        <mxCell id="IJslrshVnRdPoT8rU-hl-48" value="+ name: string" style="text;strokeColor=none;fillColor=none;align=left;verticalAlign=top;spacingLeft=4;spacingRight=4;overflow=hidden;rotatable=0;points=[[0,0.5],[1,0.5]];portConstraint=eastwest;whiteSpace=wrap;html=1;" parent="IJslrshVnRdPoT8rU-hl-46" vertex="1">
          <mxGeometry y="52" width="160" height="26" as="geometry" />
        </mxCell>
        <mxCell id="IJslrshVnRdPoT8rU-hl-49" value="+ surname: string" style="text;strokeColor=none;fillColor=none;align=left;verticalAlign=top;spacingLeft=4;spacingRight=4;overflow=hidden;rotatable=0;points=[[0,0.5],[1,0.5]];portConstraint=eastwest;whiteSpace=wrap;html=1;" parent="IJslrshVnRdPoT8rU-hl-46" vertex="1">
          <mxGeometry y="78" width="160" height="26" as="geometry" />
        </mxCell>
        <mxCell id="IJslrshVnRdPoT8rU-hl-50" value="+ phone: string" style="text;strokeColor=none;fillColor=none;align=left;verticalAlign=top;spacingLeft=4;spacingRight=4;overflow=hidden;rotatable=0;points=[[0,0.5],[1,0.5]];portConstraint=eastwest;whiteSpace=wrap;html=1;" parent="IJslrshVnRdPoT8rU-hl-46" vertex="1">
          <mxGeometry y="104" width="160" height="26" as="geometry" />
        </mxCell>
        <mxCell id="IJslrshVnRdPoT8rU-hl-51" value="+ email: string" style="text;strokeColor=none;fillColor=none;align=left;verticalAlign=top;spacingLeft=4;spacingRight=4;overflow=hidden;rotatable=0;points=[[0,0.5],[1,0.5]];portConstraint=eastwest;whiteSpace=wrap;html=1;" parent="IJslrshVnRdPoT8rU-hl-46" vertex="1">
          <mxGeometry y="130" width="160" height="26" as="geometry" />
        </mxCell>
        <mxCell id="IJslrshVnRdPoT8rU-hl-52" value="+ password: string" style="text;strokeColor=none;fillColor=none;align=left;verticalAlign=top;spacingLeft=4;spacingRight=4;overflow=hidden;rotatable=0;points=[[0,0.5],[1,0.5]];portConstraint=eastwest;whiteSpace=wrap;html=1;" parent="IJslrshVnRdPoT8rU-hl-46" vertex="1">
          <mxGeometry y="156" width="160" height="26" as="geometry" />
        </mxCell>
        <mxCell id="IJslrshVnRdPoT8rU-hl-53" value="+ role: &amp;lt;USER, ADMIN&amp;gt;" style="text;strokeColor=none;fillColor=none;align=left;verticalAlign=top;spacingLeft=4;spacingRight=4;overflow=hidden;rotatable=0;points=[[0,0.5],[1,0.5]];portConstraint=eastwest;whiteSpace=wrap;html=1;" parent="IJslrshVnRdPoT8rU-hl-46" vertex="1">
          <mxGeometry y="182" width="160" height="26" as="geometry" />
        </mxCell>
        <mxCell id="IJslrshVnRdPoT8rU-hl-54" value="" style="line;strokeWidth=1;fillColor=none;align=left;verticalAlign=middle;spacingTop=-1;spacingLeft=3;spacingRight=3;rotatable=0;labelPosition=right;points=[];portConstraint=eastwest;strokeColor=inherit;" parent="IJslrshVnRdPoT8rU-hl-46" vertex="1">
          <mxGeometry y="208" width="160" height="8" as="geometry" />
        </mxCell>
        <mxCell id="IJslrshVnRdPoT8rU-hl-55" value="+ registerUser()" style="text;strokeColor=none;fillColor=none;align=left;verticalAlign=top;spacingLeft=4;spacingRight=4;overflow=hidden;rotatable=0;points=[[0,0.5],[1,0.5]];portConstraint=eastwest;whiteSpace=wrap;html=1;" parent="IJslrshVnRdPoT8rU-hl-46" vertex="1">
          <mxGeometry y="216" width="160" height="26" as="geometry" />
        </mxCell>
        <mxCell id="IJslrshVnRdPoT8rU-hl-56" value="+ validateUser()" style="text;strokeColor=none;fillColor=none;align=left;verticalAlign=top;spacingLeft=4;spacingRight=4;overflow=hidden;rotatable=0;points=[[0,0.5],[1,0.5]];portConstraint=eastwest;whiteSpace=wrap;html=1;" parent="IJslrshVnRdPoT8rU-hl-46" vertex="1">
          <mxGeometry y="242" width="160" height="26" as="geometry" />
        </mxCell>
        <mxCell id="IJslrshVnRdPoT8rU-hl-57" value="+ createToken()" style="text;strokeColor=none;fillColor=none;align=left;verticalAlign=top;spacingLeft=4;spacingRight=4;overflow=hidden;rotatable=0;points=[[0,0.5],[1,0.5]];portConstraint=eastwest;whiteSpace=wrap;html=1;" parent="IJslrshVnRdPoT8rU-hl-46" vertex="1">
          <mxGeometry y="268" width="160" height="26" as="geometry" />
        </mxCell>
        <mxCell id="IJslrshVnRdPoT8rU-hl-65" value="1" style="endArrow=open;html=1;endSize=12;startArrow=diamondThin;startSize=14;startFill=0;align=left;verticalAlign=bottom;rounded=0;fontSize=12;exitX=0;exitY=0.5;exitDx=0;exitDy=0;" parent="1" source="IJslrshVnRdPoT8rU-hl-48" edge="1">
          <mxGeometry x="-0.8469" y="-10" relative="1" as="geometry">
            <mxPoint x="382.95999999999987" y="1780.996" as="sourcePoint" />
            <mxPoint x="331" y="1776" as="targetPoint" />
            <mxPoint as="offset" />
          </mxGeometry>
        </mxCell>
        <mxCell id="IJslrshVnRdPoT8rU-hl-68" value="1" style="endArrow=open;html=1;endSize=12;startArrow=diamondThin;startSize=14;startFill=0;edgeStyle=orthogonalEdgeStyle;align=left;verticalAlign=bottom;rounded=0;fontSize=12;exitX=0.25;exitY=0;exitDx=0;exitDy=0;entryX=0.903;entryY=1.053;entryDx=0;entryDy=0;entryPerimeter=0;" parent="1" source="IJslrshVnRdPoT8rU-hl-10" target="IJslrshVnRdPoT8rU-hl-76" edge="1">
          <mxGeometry x="-0.9198" y="9" relative="1" as="geometry">
            <mxPoint x="465" y="2453" as="sourcePoint" />
            <mxPoint x="277" y="1965" as="targetPoint" />
            <Array as="points">
              <mxPoint x="315" y="1965" />
              <mxPoint x="315" y="1965" />
            </Array>
            <mxPoint as="offset" />
          </mxGeometry>
        </mxCell>
        <mxCell id="IJslrshVnRdPoT8rU-hl-69" value="Review" style="swimlane;fontStyle=1;align=center;verticalAlign=top;childLayout=stackLayout;horizontal=1;startSize=26;horizontalStack=0;resizeParent=1;resizeParentMax=0;resizeLast=0;collapsible=1;marginBottom=0;whiteSpace=wrap;html=1;" parent="1" vertex="1">
          <mxGeometry x="170" y="1701" width="160" height="190" as="geometry" />
        </mxCell>
        <mxCell id="IJslrshVnRdPoT8rU-hl-70" value="+ id: int" style="text;strokeColor=none;fillColor=none;align=left;verticalAlign=top;spacingLeft=4;spacingRight=4;overflow=hidden;rotatable=0;points=[[0,0.5],[1,0.5]];portConstraint=eastwest;whiteSpace=wrap;html=1;" parent="IJslrshVnRdPoT8rU-hl-69" vertex="1">
          <mxGeometry y="26" width="160" height="26" as="geometry" />
        </mxCell>
        <mxCell id="IJslrshVnRdPoT8rU-hl-71" value="+ ClientName: string" style="text;strokeColor=none;fillColor=none;align=left;verticalAlign=top;spacingLeft=4;spacingRight=4;overflow=hidden;rotatable=0;points=[[0,0.5],[1,0.5]];portConstraint=eastwest;whiteSpace=wrap;html=1;" parent="IJslrshVnRdPoT8rU-hl-69" vertex="1">
          <mxGeometry y="52" width="160" height="26" as="geometry" />
        </mxCell>
        <mxCell id="IJslrshVnRdPoT8rU-hl-72" value="+ comment: string" style="text;strokeColor=none;fillColor=none;align=left;verticalAlign=top;spacingLeft=4;spacingRight=4;overflow=hidden;rotatable=0;points=[[0,0.5],[1,0.5]];portConstraint=eastwest;whiteSpace=wrap;html=1;" parent="IJslrshVnRdPoT8rU-hl-69" vertex="1">
          <mxGeometry y="78" width="160" height="26" as="geometry" />
        </mxCell>
        <mxCell id="IJslrshVnRdPoT8rU-hl-73" value="+ rating: decimal" style="text;strokeColor=none;fillColor=none;align=left;verticalAlign=top;spacingLeft=4;spacingRight=4;overflow=hidden;rotatable=0;points=[[0,0.5],[1,0.5]];portConstraint=eastwest;whiteSpace=wrap;html=1;" parent="IJslrshVnRdPoT8rU-hl-69" vertex="1">
          <mxGeometry y="104" width="160" height="26" as="geometry" />
        </mxCell>
        <mxCell id="IJslrshVnRdPoT8rU-hl-74" value="+ employee: Employee" style="text;strokeColor=none;fillColor=none;align=left;verticalAlign=top;spacingLeft=4;spacingRight=4;overflow=hidden;rotatable=0;points=[[0,0.5],[1,0.5]];portConstraint=eastwest;whiteSpace=wrap;html=1;" parent="IJslrshVnRdPoT8rU-hl-69" vertex="1">
          <mxGeometry y="130" width="160" height="26" as="geometry" />
        </mxCell>
        <mxCell id="IJslrshVnRdPoT8rU-hl-75" value="" style="line;strokeWidth=1;fillColor=none;align=left;verticalAlign=middle;spacingTop=-1;spacingLeft=3;spacingRight=3;rotatable=0;labelPosition=right;points=[];portConstraint=eastwest;strokeColor=inherit;" parent="IJslrshVnRdPoT8rU-hl-69" vertex="1">
          <mxGeometry y="156" width="160" height="8" as="geometry" />
        </mxCell>
        <mxCell id="IJslrshVnRdPoT8rU-hl-76" value="+ addReview()" style="text;strokeColor=none;fillColor=none;align=left;verticalAlign=top;spacingLeft=4;spacingRight=4;overflow=hidden;rotatable=0;points=[[0,0.5],[1,0.5]];portConstraint=eastwest;whiteSpace=wrap;html=1;" parent="IJslrshVnRdPoT8rU-hl-69" vertex="1">
          <mxGeometry y="164" width="160" height="26" as="geometry" />
        </mxCell>
        <mxCell id="IJslrshVnRdPoT8rU-hl-79" value="availability check" style="endArrow=open;endSize=12;dashed=1;html=1;rounded=0;fontSize=12;exitX=1;exitY=0.5;exitDx=0;exitDy=0;entryX=0.326;entryY=-0.008;entryDx=0;entryDy=0;entryPerimeter=0;edgeStyle=orthogonalEdgeStyle;" parent="1" source="IJslrshVnRdPoT8rU-hl-31" target="IJslrshVnRdPoT8rU-hl-38" edge="1">
          <mxGeometry x="-0.0029" width="160" relative="1" as="geometry">
            <mxPoint x="795" y="2197" as="sourcePoint" />
            <mxPoint x="955" y="2197" as="targetPoint" />
            <mxPoint as="offset" />
          </mxGeometry>
        </mxCell>
        <mxCell id="IJslrshVnRdPoT8rU-hl-81" value="1" style="endArrow=open;html=1;endSize=12;startArrow=diamondThin;startSize=14;startFill=1;align=left;verticalAlign=bottom;rounded=0;fontSize=12;exitX=0.462;exitY=1.044;exitDx=0;exitDy=0;exitPerimeter=0;entryX=0.572;entryY=0.001;entryDx=0;entryDy=0;entryPerimeter=0;" parent="1" source="IJslrshVnRdPoT8rU-hl-57" target="IJslrshVnRdPoT8rU-hl-29" edge="1">
          <mxGeometry x="-0.5958" y="3" relative="1" as="geometry">
            <mxPoint x="881" y="2021" as="sourcePoint" />
            <mxPoint x="1041" y="2021" as="targetPoint" />
            <mxPoint as="offset" />
          </mxGeometry>
        </mxCell>
        <mxCell id="IJslrshVnRdPoT8rU-hl-82" value="1" style="endArrow=open;html=1;endSize=12;startArrow=diamondThin;startSize=14;startFill=1;edgeStyle=orthogonalEdgeStyle;align=left;verticalAlign=bottom;rounded=0;fontSize=12;entryX=0.02;entryY=-0.072;entryDx=0;entryDy=0;entryPerimeter=0;exitX=0.895;exitY=1.087;exitDx=0;exitDy=0;exitPerimeter=0;" parent="1" source="IJslrshVnRdPoT8rU-hl-9" target="IJslrshVnRdPoT8rU-hl-30" edge="1">
          <mxGeometry x="-0.8031" y="9" relative="1" as="geometry">
            <mxPoint x="540" y="2129" as="sourcePoint" />
            <mxPoint x="605" y="2159" as="targetPoint" />
            <Array as="points">
              <mxPoint x="523" y="2129" />
              <mxPoint x="524" y="2154" />
            </Array>
            <mxPoint as="offset" />
          </mxGeometry>
        </mxCell>
        <mxCell id="IJslrshVnRdPoT8rU-hl-83" value="1" style="endArrow=open;html=1;endSize=12;startArrow=diamondThin;startSize=14;startFill=1;align=left;verticalAlign=bottom;rounded=0;fontSize=12;" parent="1" edge="1">
          <mxGeometry x="-1" y="3" relative="1" as="geometry">
            <mxPoint x="479" y="2255" as="sourcePoint" />
            <mxPoint x="632" y="2255" as="targetPoint" />
          </mxGeometry>
        </mxCell>
        <mxCell id="IJslrshVnRdPoT8rU-hl-84" value="1" style="endArrow=open;html=1;endSize=12;startArrow=diamondThin;startSize=14;startFill=0;align=left;verticalAlign=bottom;rounded=0;fontSize=12;exitX=1;exitY=0.5;exitDx=0;exitDy=0;entryX=-0.001;entryY=0.945;entryDx=0;entryDy=0;entryPerimeter=0;" parent="1" source="IJslrshVnRdPoT8rU-hl-19" target="IJslrshVnRdPoT8rU-hl-44" edge="1">
          <mxGeometry x="-1" y="3" relative="1" as="geometry">
            <mxPoint x="621" y="2413" as="sourcePoint" />
            <mxPoint x="781" y="2413" as="targetPoint" />
          </mxGeometry>
        </mxCell>
        <mxCell id="IJslrshVnRdPoT8rU-hl-137" value="" style="verticalLabelPosition=bottom;verticalAlign=top;html=1;shape=mxgraph.basic.rect;fillColor2=none;strokeWidth=1;size=20;indent=5;" parent="1" vertex="1">
          <mxGeometry x="1521" y="1726" width="549" height="927" as="geometry" />
        </mxCell>
        <mxCell id="IJslrshVnRdPoT8rU-hl-138" value="Пользователь&amp;nbsp;&lt;div&gt;системы&lt;/div&gt;" style="shape=umlActor;verticalLabelPosition=bottom;verticalAlign=top;html=1;outlineConnect=0;" parent="1" vertex="1">
          <mxGeometry x="1437" y="2163" width="29.5" height="60" as="geometry" />
        </mxCell>
        <mxCell id="IJslrshVnRdPoT8rU-hl-139" value="Гость" style="shape=umlActor;verticalLabelPosition=bottom;verticalAlign=top;html=1;outlineConnect=0;" parent="1" vertex="1">
          <mxGeometry x="1369" y="2515" width="27" height="60" as="geometry" />
        </mxCell>
        <mxCell id="IJslrshVnRdPoT8rU-hl-140" value="Просмотр рейтинга сотрудников" style="ellipse;whiteSpace=wrap;html=1;" parent="1" vertex="1">
          <mxGeometry x="1590.5" y="2100" width="142" height="40" as="geometry" />
        </mxCell>
        <mxCell id="IJslrshVnRdPoT8rU-hl-141" value="" style="endArrow=none;html=1;rounded=0;entryX=0.042;entryY=0.727;entryDx=0;entryDy=0;entryPerimeter=0;" parent="1" target="IJslrshVnRdPoT8rU-hl-140" edge="1">
          <mxGeometry width="50" height="50" relative="1" as="geometry">
            <mxPoint x="1482" y="2189.5" as="sourcePoint" />
            <mxPoint x="902" y="2509.5" as="targetPoint" />
          </mxGeometry>
        </mxCell>
        <mxCell id="IJslrshVnRdPoT8rU-hl-142" value="Просмотр услуг" style="ellipse;whiteSpace=wrap;html=1;" parent="1" vertex="1">
          <mxGeometry x="1590.5" y="2154" width="142" height="40" as="geometry" />
        </mxCell>
        <mxCell id="IJslrshVnRdPoT8rU-hl-143" value="" style="endArrow=none;html=1;rounded=0;entryX=0;entryY=1;entryDx=0;entryDy=0;" parent="1" target="IJslrshVnRdPoT8rU-hl-142" edge="1">
          <mxGeometry width="50" height="50" relative="1" as="geometry">
            <mxPoint x="1482" y="2199.5" as="sourcePoint" />
            <mxPoint x="1616" y="2098.5" as="targetPoint" />
          </mxGeometry>
        </mxCell>
        <mxCell id="IJslrshVnRdPoT8rU-hl-144" value="Просмотр отзывов" style="ellipse;whiteSpace=wrap;html=1;" parent="1" vertex="1">
          <mxGeometry x="1594" y="2205" width="142" height="40" as="geometry" />
        </mxCell>
        <mxCell id="IJslrshVnRdPoT8rU-hl-145" value="" style="endArrow=none;html=1;rounded=0;entryX=0;entryY=0.5;entryDx=0;entryDy=0;" parent="1" target="IJslrshVnRdPoT8rU-hl-144" edge="1">
          <mxGeometry width="50" height="50" relative="1" as="geometry">
            <mxPoint x="1480" y="2232" as="sourcePoint" />
            <mxPoint x="900" y="2531.5" as="targetPoint" />
          </mxGeometry>
        </mxCell>
        <mxCell id="IJslrshVnRdPoT8rU-hl-148" value="Регистрация&amp;nbsp;" style="ellipse;whiteSpace=wrap;html=1;" parent="1" vertex="1">
          <mxGeometry x="1582" y="2535" width="142" height="40" as="geometry" />
        </mxCell>
        <mxCell id="IJslrshVnRdPoT8rU-hl-149" value="" style="endArrow=none;html=1;rounded=0;entryX=0.002;entryY=0.372;entryDx=0;entryDy=0;entryPerimeter=0;" parent="1" target="IJslrshVnRdPoT8rU-hl-148" edge="1">
          <mxGeometry width="50" height="50" relative="1" as="geometry">
            <mxPoint x="1435" y="2550" as="sourcePoint" />
            <mxPoint x="906" y="2873.5" as="targetPoint" />
          </mxGeometry>
        </mxCell>
        <mxCell id="IJslrshVnRdPoT8rU-hl-150" value="Авторизация" style="ellipse;whiteSpace=wrap;html=1;" parent="1" vertex="1">
          <mxGeometry x="1583" y="2587" width="142" height="40" as="geometry" />
        </mxCell>
        <mxCell id="IJslrshVnRdPoT8rU-hl-151" value="" style="endArrow=none;html=1;rounded=0;entryX=0.042;entryY=0.349;entryDx=0;entryDy=0;entryPerimeter=0;" parent="1" target="IJslrshVnRdPoT8rU-hl-150" edge="1">
          <mxGeometry width="50" height="50" relative="1" as="geometry">
            <mxPoint x="1437" y="2568" as="sourcePoint" />
            <mxPoint x="1620" y="2462.5" as="targetPoint" />
          </mxGeometry>
        </mxCell>
        <mxCell id="IJslrshVnRdPoT8rU-hl-152" value="Администратор" style="shape=umlActor;verticalLabelPosition=bottom;verticalAlign=top;html=1;outlineConnect=0;" parent="1" vertex="1">
          <mxGeometry x="1437" y="1830.5" width="30" height="60" as="geometry" />
        </mxCell>
        <mxCell id="IJslrshVnRdPoT8rU-hl-153" value="Добавление сотрудников" style="ellipse;whiteSpace=wrap;html=1;" parent="1" vertex="1">
          <mxGeometry x="1593" y="1898" width="136" height="45" as="geometry" />
        </mxCell>
        <mxCell id="IJslrshVnRdPoT8rU-hl-154" value="Удаление сотрудников" style="ellipse;whiteSpace=wrap;html=1;" parent="1" vertex="1">
          <mxGeometry x="1588.5" y="2008" width="142" height="45" as="geometry" />
        </mxCell>
        <mxCell id="IJslrshVnRdPoT8rU-hl-155" value="Изменение сотрудников" style="ellipse;whiteSpace=wrap;html=1;" parent="1" vertex="1">
          <mxGeometry x="1593" y="1953" width="133" height="45" as="geometry" />
        </mxCell>
        <mxCell id="IJslrshVnRdPoT8rU-hl-156" value="" style="endArrow=none;html=1;rounded=0;entryX=0;entryY=0.5;entryDx=0;entryDy=0;" parent="1" target="IJslrshVnRdPoT8rU-hl-153" edge="1">
          <mxGeometry width="50" height="50" relative="1" as="geometry">
            <mxPoint x="1484" y="1883" as="sourcePoint" />
            <mxPoint x="1457" y="1953" as="targetPoint" />
          </mxGeometry>
        </mxCell>
        <mxCell id="IJslrshVnRdPoT8rU-hl-157" value="Удаление услуг" style="ellipse;whiteSpace=wrap;html=1;" parent="1" vertex="1">
          <mxGeometry x="1590" y="1850.5" width="142" height="40" as="geometry" />
        </mxCell>
        <mxCell id="IJslrshVnRdPoT8rU-hl-158" value="" style="endArrow=none;html=1;rounded=0;entryX=0;entryY=0.5;entryDx=0;entryDy=0;" parent="1" target="IJslrshVnRdPoT8rU-hl-157" edge="1">
          <mxGeometry width="50" height="50" relative="1" as="geometry">
            <mxPoint x="1484" y="1873" as="sourcePoint" />
            <mxPoint x="1633" y="1792" as="targetPoint" />
          </mxGeometry>
        </mxCell>
        <mxCell id="IJslrshVnRdPoT8rU-hl-159" value="" style="endArrow=none;html=1;rounded=0;" parent="1" target="IJslrshVnRdPoT8rU-hl-155" edge="1">
          <mxGeometry width="50" height="50" relative="1" as="geometry">
            <mxPoint x="1484" y="1903" as="sourcePoint" />
            <mxPoint x="1653" y="1812" as="targetPoint" />
          </mxGeometry>
        </mxCell>
        <mxCell id="IJslrshVnRdPoT8rU-hl-160" value="" style="endArrow=none;html=1;rounded=0;entryX=0;entryY=0;entryDx=0;entryDy=0;" parent="1" target="IJslrshVnRdPoT8rU-hl-154" edge="1">
          <mxGeometry width="50" height="50" relative="1" as="geometry">
            <mxPoint x="1484" y="1913" as="sourcePoint" />
            <mxPoint x="1663" y="1822" as="targetPoint" />
          </mxGeometry>
        </mxCell>
        <mxCell id="IJslrshVnRdPoT8rU-hl-161" value="Extends" style="endArrow=block;endSize=16;endFill=0;html=1;rounded=0;fontSize=12;curved=1;" parent="1" edge="1">
          <mxGeometry width="160" relative="1" as="geometry">
            <mxPoint x="1447" y="1922" as="sourcePoint" />
            <mxPoint x="1447" y="2136" as="targetPoint" />
          </mxGeometry>
        </mxCell>
        <mxCell id="IJslrshVnRdPoT8rU-hl-162" value="Добавление услуг" style="ellipse;whiteSpace=wrap;html=1;" parent="1" vertex="1">
          <mxGeometry x="1586" y="1750" width="142" height="40" as="geometry" />
        </mxCell>
        <mxCell id="IJslrshVnRdPoT8rU-hl-163" value="" style="endArrow=none;html=1;rounded=0;entryX=0.042;entryY=0.727;entryDx=0;entryDy=0;entryPerimeter=0;" parent="1" target="IJslrshVnRdPoT8rU-hl-162" edge="1">
          <mxGeometry width="50" height="50" relative="1" as="geometry">
            <mxPoint x="1480" y="1855.5" as="sourcePoint" />
            <mxPoint x="900" y="2175.5" as="targetPoint" />
          </mxGeometry>
        </mxCell>
        <mxCell id="IJslrshVnRdPoT8rU-hl-164" value="Изменение услуг" style="ellipse;whiteSpace=wrap;html=1;" parent="1" vertex="1">
          <mxGeometry x="1588.5" y="1799" width="142" height="40" as="geometry" />
        </mxCell>
        <mxCell id="IJslrshVnRdPoT8rU-hl-165" value="" style="endArrow=none;html=1;rounded=0;entryX=0;entryY=1;entryDx=0;entryDy=0;" parent="1" target="IJslrshVnRdPoT8rU-hl-164" edge="1">
          <mxGeometry width="50" height="50" relative="1" as="geometry">
            <mxPoint x="1480" y="1865.5" as="sourcePoint" />
            <mxPoint x="1614" y="1764.5" as="targetPoint" />
          </mxGeometry>
        </mxCell>
        <mxCell id="IJslrshVnRdPoT8rU-hl-166" value="Пользователь" style="shape=umlActor;verticalLabelPosition=bottom;verticalAlign=top;html=1;outlineConnect=0;" parent="1" vertex="1">
          <mxGeometry x="1447" y="2353" width="29.5" height="60" as="geometry" />
        </mxCell>
        <mxCell id="IJslrshVnRdPoT8rU-hl-169" value="Информация о записях" style="ellipse;whiteSpace=wrap;html=1;" parent="1" vertex="1">
          <mxGeometry x="1599.5" y="2277" width="124" height="50" as="geometry" />
        </mxCell>
        <mxCell id="IJslrshVnRdPoT8rU-hl-170" value="Обновление информации о себе" style="ellipse;whiteSpace=wrap;html=1;" parent="1" vertex="1">
          <mxGeometry x="1591" y="2336" width="140" height="55" as="geometry" />
        </mxCell>
        <mxCell id="IJslrshVnRdPoT8rU-hl-171" value="Добавление отзывов" style="ellipse;whiteSpace=wrap;html=1;" parent="1" vertex="1">
          <mxGeometry x="1598.5" y="2401" width="130" height="46.5" as="geometry" />
        </mxCell>
        <mxCell id="IJslrshVnRdPoT8rU-hl-172" value="Запись на услугу" style="ellipse;whiteSpace=wrap;html=1;" parent="1" vertex="1">
          <mxGeometry x="1596" y="2459" width="130" height="52" as="geometry" />
        </mxCell>
        <mxCell id="IJslrshVnRdPoT8rU-hl-173" value="" style="endArrow=none;html=1;rounded=0;entryX=0;entryY=0.5;entryDx=0;entryDy=0;" parent="1" target="IJslrshVnRdPoT8rU-hl-171" edge="1">
          <mxGeometry width="50" height="50" relative="1" as="geometry">
            <mxPoint x="1501" y="2403" as="sourcePoint" />
            <mxPoint x="1599.5" y="2422" as="targetPoint" />
          </mxGeometry>
        </mxCell>
        <mxCell id="IJslrshVnRdPoT8rU-hl-174" value="" style="endArrow=none;html=1;rounded=0;" parent="1" target="IJslrshVnRdPoT8rU-hl-172" edge="1">
          <mxGeometry width="50" height="50" relative="1" as="geometry">
            <mxPoint x="1497" y="2417" as="sourcePoint" />
            <mxPoint x="1609" y="2434" as="targetPoint" />
          </mxGeometry>
        </mxCell>
        <mxCell id="IJslrshVnRdPoT8rU-hl-175" value="" style="endArrow=none;html=1;rounded=0;entryX=0.032;entryY=0.678;entryDx=0;entryDy=0;entryPerimeter=0;" parent="1" target="IJslrshVnRdPoT8rU-hl-170" edge="1">
          <mxGeometry width="50" height="50" relative="1" as="geometry">
            <mxPoint x="1495" y="2381" as="sourcePoint" />
            <mxPoint x="1598.5" y="2411" as="targetPoint" />
          </mxGeometry>
        </mxCell>
        <mxCell id="IJslrshVnRdPoT8rU-hl-176" value="" style="endArrow=none;html=1;rounded=0;entryX=0.027;entryY=0.733;entryDx=0;entryDy=0;entryPerimeter=0;" parent="1" target="IJslrshVnRdPoT8rU-hl-169" edge="1">
          <mxGeometry width="50" height="50" relative="1" as="geometry">
            <mxPoint x="1491" y="2360" as="sourcePoint" />
            <mxPoint x="1596" y="2397" as="targetPoint" />
          </mxGeometry>
        </mxCell>
        <mxCell id="IJslrshVnRdPoT8rU-hl-177" value="Выбор услуги" style="ellipse;whiteSpace=wrap;html=1;" parent="1" vertex="1">
          <mxGeometry x="1808" y="2463" width="110" height="30" as="geometry" />
        </mxCell>
        <mxCell id="IJslrshVnRdPoT8rU-hl-178" value="Выбор времени" style="ellipse;whiteSpace=wrap;html=1;" parent="1" vertex="1">
          <mxGeometry x="1810.5" y="2557" width="110" height="40" as="geometry" />
        </mxCell>
        <mxCell id="IJslrshVnRdPoT8rU-hl-179" value="Выбор сотрудника" style="ellipse;whiteSpace=wrap;html=1;" parent="1" vertex="1">
          <mxGeometry x="1803" y="2502" width="120" height="46.5" as="geometry" />
        </mxCell>
        <mxCell id="IJslrshVnRdPoT8rU-hl-180" value="Указание рейтинга" style="ellipse;whiteSpace=wrap;html=1;" parent="1" vertex="1">
          <mxGeometry x="1800" y="2368" width="115" height="30" as="geometry" />
        </mxCell>
        <mxCell id="IJslrshVnRdPoT8rU-hl-181" value="Указание комментария" style="ellipse;whiteSpace=wrap;html=1;" parent="1" vertex="1">
          <mxGeometry x="1803" y="2406.25" width="120" height="36" as="geometry" />
        </mxCell>
        <mxCell id="IJslrshVnRdPoT8rU-hl-182" value="include" style="endArrow=open;endSize=12;dashed=1;html=1;rounded=0;exitX=1;exitY=0.5;exitDx=0;exitDy=0;entryX=0.061;entryY=0.72;entryDx=0;entryDy=0;entryPerimeter=0;" parent="1" source="IJslrshVnRdPoT8rU-hl-171" target="IJslrshVnRdPoT8rU-hl-180" edge="1">
          <mxGeometry width="160" relative="1" as="geometry">
            <mxPoint x="1860" y="2324" as="sourcePoint" />
            <mxPoint x="1771" y="2284" as="targetPoint" />
          </mxGeometry>
        </mxCell>
        <mxCell id="IJslrshVnRdPoT8rU-hl-183" value="extend" style="endArrow=open;endSize=12;dashed=1;html=1;rounded=0;exitX=1;exitY=0.5;exitDx=0;exitDy=0;entryX=0;entryY=0.5;entryDx=0;entryDy=0;" parent="1" target="IJslrshVnRdPoT8rU-hl-181" edge="1">
          <mxGeometry width="160" relative="1" as="geometry">
            <mxPoint x="1725" y="2432" as="sourcePoint" />
            <mxPoint x="1790" y="2399" as="targetPoint" />
          </mxGeometry>
        </mxCell>
        <mxCell id="IJslrshVnRdPoT8rU-hl-184" value="include" style="endArrow=open;endSize=12;dashed=1;html=1;rounded=0;exitX=1;exitY=0.5;exitDx=0;exitDy=0;entryX=0;entryY=0.5;entryDx=0;entryDy=0;" parent="1" target="IJslrshVnRdPoT8rU-hl-177" edge="1">
          <mxGeometry width="160" relative="1" as="geometry">
            <mxPoint x="1725" y="2480.5" as="sourcePoint" />
            <mxPoint x="1790" y="2447.5" as="targetPoint" />
          </mxGeometry>
        </mxCell>
        <mxCell id="IJslrshVnRdPoT8rU-hl-185" value="include" style="endArrow=open;endSize=12;dashed=1;html=1;rounded=0;exitX=1;exitY=0.5;exitDx=0;exitDy=0;entryX=0;entryY=0.5;entryDx=0;entryDy=0;" parent="1" target="IJslrshVnRdPoT8rU-hl-179" edge="1">
          <mxGeometry width="160" relative="1" as="geometry">
            <mxPoint x="1725" y="2489" as="sourcePoint" />
            <mxPoint x="1790" y="2456" as="targetPoint" />
          </mxGeometry>
        </mxCell>
        <mxCell id="IJslrshVnRdPoT8rU-hl-186" value="include" style="endArrow=open;endSize=12;dashed=1;html=1;rounded=0;exitX=1;exitY=0.5;exitDx=0;exitDy=0;entryX=0.04;entryY=0.315;entryDx=0;entryDy=0;entryPerimeter=0;" parent="1" target="IJslrshVnRdPoT8rU-hl-178" edge="1">
          <mxGeometry width="160" relative="1" as="geometry">
            <mxPoint x="1717" y="2498" as="sourcePoint" />
            <mxPoint x="1782" y="2465" as="targetPoint" />
          </mxGeometry>
        </mxCell>
        <mxCell id="IJslrshVnRdPoT8rU-hl-187" value="Extends" style="endArrow=block;endSize=16;endFill=0;html=1;rounded=0;fontSize=12;curved=1;" parent="1" edge="1">
          <mxGeometry width="160" relative="1" as="geometry">
            <mxPoint x="1458.5" y="2334.5" as="sourcePoint" />
            <mxPoint x="1458.5" y="2269.5" as="targetPoint" />
          </mxGeometry>
        </mxCell>
        <mxCell id="IJslrshVnRdPoT8rU-hl-188" value="Extends" style="endArrow=block;endSize=16;endFill=0;html=1;rounded=0;fontSize=12;curved=1;" parent="1" edge="1">
          <mxGeometry width="160" relative="1" as="geometry">
            <mxPoint x="1381" y="2490" as="sourcePoint" />
            <mxPoint x="1420" y="2257" as="targetPoint" />
          </mxGeometry>
        </mxCell>
      </root>
    </mxGraphModel>
  </diagram>
</mxfile>
